<svg width="504" height="205" viewBox="0 0 504 205" fill="none" xmlns="http://www.w3.org/2000/svg">
<g filter="url(#filter0_d_400_154)">
<path d="M92.6016 47.2308C92.6016 33.3747 81.369 22.1421 67.5129 22.1421C53.6568 22.1421 42.4242 33.3747 42.4242 47.2308C42.4242 61.0869 53.6568 72.3195 67.5129 72.3195C81.369 72.3195 92.6016 61.0869 92.6016 47.2308Z" fill="#E5FFF2"/>
<path d="M55.8392 50.1191C55.7649 50.2686 55.6994 50.3999 55.6517 50.5146V50.5148C55.3894 51.1658 55.2581 51.8621 55.2654 52.564V57.821C55.2598 58.1979 55.3935 58.5636 55.6411 58.8479C55.8884 59.1324 56.2321 59.3154 56.6062 59.362C56.9697 59.3967 57.3333 59.2978 57.6291 59.084C57.8668 59.4776 58.2746 59.7377 58.7315 59.7869C59.0942 59.8221 59.4571 59.7231 59.7516 59.5086C59.9892 59.9024 60.3971 60.1626 60.8544 60.2119C60.9021 60.2165 60.9495 60.2192 60.9967 60.2192H60.9968C61.3677 60.2197 61.7256 60.0818 62.0006 59.8328C62.0217 59.8132 62.0431 59.7933 62.0627 59.7729C62.0826 59.7933 62.1052 59.8132 62.1242 59.8328C62.4365 60.1149 62.8529 60.2524 63.2718 60.2119C63.5996 60.1729 63.9057 60.0279 64.1437 59.7992C64.3817 59.5703 64.5385 59.2703 64.5904 58.9442H68.0149C68.9429 58.9549 69.8534 59.1962 70.6646 59.6468C70.8143 59.7211 70.9455 59.7866 71.0602 59.8343L71.0605 59.8341C71.7116 60.0961 72.4079 60.227 73.1097 60.2192H78.3666C78.7434 60.2249 79.1092 60.0911 79.3936 59.8435C79.678 59.5961 79.8611 59.2525 79.9076 58.8785C79.9427 58.5149 79.8438 58.1511 79.6296 57.8555C80.0232 57.6179 80.2833 57.21 80.3326 56.7531C80.3671 56.3904 80.2682 56.0277 80.0542 55.733C80.448 55.4954 80.7083 55.0875 80.7575 54.6302C80.7984 54.2113 80.6607 53.7948 80.3785 53.4828C80.3589 53.4616 80.339 53.4403 80.3185 53.4207C80.339 53.4008 80.3589 53.3782 80.3785 53.3592V53.359C80.6604 53.0469 80.7981 52.6305 80.7575 52.2116C80.7182 51.8841 80.5732 51.5782 80.3445 51.3406C80.1158 51.1028 79.8157 50.9461 79.4899 50.8941V47.4696C79.5005 46.5416 79.7419 45.6311 80.1924 44.8199C80.2668 44.6704 80.3322 44.5391 80.3799 44.4243L80.3797 44.4242C80.6417 43.773 80.7726 43.0766 80.7648 42.3749V37.118C80.7704 36.7411 80.6367 36.3754 80.3891 36.091C80.1417 35.8066 79.7981 35.6235 79.424 35.577C79.0605 35.5423 78.6969 35.6411 78.4011 35.8549C78.1634 35.4613 77.7556 35.2013 77.2987 35.152C76.9361 35.1182 76.5736 35.2173 76.2786 35.4304C76.0404 35.0358 75.6311 34.7755 75.1728 34.7271C74.7539 34.686 74.3374 34.8237 74.0254 35.1061C74.0042 35.1257 73.9829 35.1456 73.9633 35.166C73.9434 35.1456 73.9208 35.1236 73.9017 35.1061C73.5898 34.8237 73.173 34.6858 72.7542 34.7271C72.4273 34.7669 72.122 34.9123 71.8849 35.141C71.6479 35.3697 71.4915 35.6694 71.4397 35.9948H68.0152C67.0875 35.9846 66.1768 35.7436 65.3656 35.2936C65.2159 35.2192 65.0847 35.1538 64.97 35.1061H64.9697C64.3187 34.8438 63.6224 34.7125 62.9205 34.7198H57.6636C57.2865 34.7143 56.9207 34.8483 56.6363 35.0959C56.3519 35.3436 56.1688 35.6876 56.1226 36.062C56.0876 36.4254 56.1865 36.7891 56.4006 37.0849C56.007 37.3224 55.747 37.7302 55.6976 38.1874C55.6631 38.5499 55.762 38.9125 55.9761 39.2073C55.5817 39.4452 55.3214 39.8538 55.2727 40.3118C55.2319 40.7305 55.3695 41.1472 55.6518 41.4593C55.6714 41.4804 55.6913 41.5018 55.7117 41.5213C55.6913 41.5413 55.6692 41.5638 55.6518 41.5829C55.3699 41.8952 55.2322 42.3116 55.2727 42.7305C55.3126 43.0574 55.4579 43.3626 55.6867 43.5997C55.9153 43.8368 56.2151 43.9931 56.5404 44.0449V47.4694C56.5302 48.3971 56.2893 49.3078 55.8393 50.1191H55.8392ZM63.7654 58.6708C63.7717 58.8366 63.7172 58.9991 63.6117 59.1272C63.5062 59.2555 63.3573 59.3405 63.1934 59.3661C63.0137 59.3846 62.8347 59.326 62.7007 59.2051C62.5667 59.0842 62.4902 58.912 62.4904 58.7315C62.4904 58.4969 62.3001 58.3065 62.0653 58.3065C61.8307 58.3065 61.6404 58.4969 61.6404 58.7315C61.6412 58.9124 61.5653 59.0853 61.4314 59.2068C61.2975 59.3284 61.1183 59.3873 60.9384 59.369C60.7737 59.3436 60.624 59.2582 60.5184 59.1294C60.4127 59.0006 60.3584 58.8373 60.3654 58.6708V58.3066C60.3654 58.0718 60.1751 57.8817 59.9405 57.8817C59.7057 57.8817 59.5154 58.0718 59.5154 58.3066C59.5164 58.4875 59.4405 58.6602 59.3066 58.7819C59.1727 58.9034 58.9934 58.9624 58.8134 58.9441C58.6486 58.9186 58.4992 58.8333 58.3934 58.7045C58.2878 58.5755 58.2333 58.4122 58.2405 58.2458V57.8817C58.2405 57.6469 58.0503 57.4566 57.8155 57.4566C57.5807 57.4566 57.3906 57.6469 57.3906 57.8817C57.3915 58.0625 57.3155 58.2355 57.1814 58.357C57.0475 58.4786 56.868 58.5375 56.688 58.5192C56.5235 58.4936 56.3741 58.4082 56.2684 58.2794C56.1628 58.1505 56.1083 57.9874 56.1156 57.8209V52.5639C56.108 51.9743 56.2167 51.3888 56.4356 50.8411C56.4782 50.7417 56.5338 50.6286 56.5989 50.4982H56.5987C57.1083 49.5692 57.3803 48.5287 57.3906 47.4693V44.0693H62.0651C62.1779 44.0693 62.2861 44.1141 62.3658 44.1938C62.4454 44.2735 62.4902 44.3816 62.4902 44.4944V45.7693C62.4902 45.8914 62.4954 46.0129 62.5043 46.1288C62.6561 48.1425 64.0712 49.2975 64.7508 49.8525C64.8575 49.9396 64.9475 50.0122 65.0135 50.074H65.0133C65.5896 50.633 65.9799 51.3556 66.1311 52.1442H65.0402C64.7021 52.1442 64.3776 52.2784 64.1385 52.5175C63.8995 52.7566 63.7652 53.081 63.7652 53.4192L63.7654 58.6708ZM69.0437 42.8572C69.2191 43.8577 69.7061 44.7775 70.4352 45.4849C70.512 45.5567 70.6172 45.643 70.7411 45.7446C71.3247 46.2205 72.3688 47.0764 72.6276 48.498C71.6271 48.6734 70.7073 49.1603 70 49.8895C69.9281 49.9663 69.8418 50.0714 69.7403 50.1954C69.2643 50.7789 68.4084 51.823 66.9869 52.0819C66.8115 51.0813 66.3244 50.1616 65.5954 49.4542C65.5186 49.3823 65.4134 49.2961 65.2895 49.1946C64.7059 48.7185 63.6618 47.8626 63.403 46.4411C64.4035 46.2658 65.3232 45.7787 66.0306 45.0497C66.1024 44.9728 66.1887 44.8677 66.2903 44.7437C66.7663 44.1601 67.6222 43.116 69.0437 42.8572ZM79.9118 52.2919H79.912C79.9303 52.4714 79.8718 52.6503 79.7509 52.7842C79.6299 52.918 79.4579 52.9945 79.2774 52.9943C79.0428 52.9943 78.8524 53.1846 78.8524 53.4194C78.8524 53.654 79.0428 53.8444 79.2774 53.8444C79.4583 53.8435 79.6312 53.9194 79.7527 54.0533C79.8743 54.1873 79.9332 54.3664 79.9149 54.5463C79.8895 54.7111 79.8041 54.8607 79.6753 54.9664C79.5465 55.072 79.3832 55.1264 79.2168 55.1193H78.8525C78.6178 55.1193 78.4276 55.3096 78.4276 55.5442C78.4276 55.779 78.6178 55.9693 78.8525 55.9693C79.0334 55.9683 79.2061 56.0442 79.3278 56.1781C79.4493 56.3121 79.5084 56.4913 79.49 56.6713C79.4646 56.8361 79.3792 56.9855 79.2504 57.0913C79.1214 57.1969 78.9581 57.2514 78.7917 57.2442H78.4276C78.1928 57.2442 78.0025 57.4344 78.0025 57.6692C78.0025 57.904 78.1928 58.0941 78.4276 58.0941C78.6085 58.0932 78.7814 58.1692 78.9029 58.3033C79.0245 58.4372 79.0834 58.6167 79.0651 58.7967C79.0395 58.9612 78.9541 59.1107 78.8254 59.2163C78.6964 59.3219 78.5333 59.3764 78.3668 59.3691H73.1099C72.5203 59.3767 71.9347 59.268 71.387 59.0491C71.2876 59.0066 71.1745 58.9509 71.0441 58.8858V58.886C70.1151 58.3764 69.0746 58.1044 68.0152 58.0941H64.6152V53.4196C64.6152 53.1848 64.8056 52.9945 65.0403 52.9945H66.3153C66.4373 52.9945 66.5588 52.9893 66.6748 52.9804C68.6884 52.8287 69.8434 51.4135 70.3984 50.7339C70.4834 50.6272 70.5581 50.5372 70.6199 50.4718C71.1787 49.8955 71.9015 49.5051 72.6901 49.3536V50.4445C72.6901 50.7826 72.8244 51.1071 73.0634 51.3462C73.3025 51.5852 73.6269 51.7195 73.9651 51.7195H79.2165C79.3823 51.7131 79.5446 51.7677 79.6729 51.873C79.801 51.9785 79.886 52.1271 79.9118 52.2912L79.9118 52.2919ZM72.2653 36.2679C72.2589 36.1022 72.3135 35.9396 72.4189 35.8116C72.5244 35.6833 72.6733 35.5983 72.8373 35.5727C73.0176 35.5551 73.1971 35.6143 73.3315 35.7356C73.4649 35.856 73.5409 36.0275 73.5402 36.2073C73.5402 36.4419 73.7305 36.6322 73.9653 36.6322C74.1999 36.6322 74.3902 36.4419 74.3902 36.2073C74.3891 36.0269 74.4651 35.8546 74.5989 35.7338C74.7331 35.6125 74.9123 35.5536 75.0923 35.5715C75.2566 35.5969 75.406 35.6821 75.5117 35.8105C75.6173 35.9389 75.6719 36.1019 75.6652 36.2679V36.6323C75.6652 36.867 75.8555 37.0572 76.0901 37.0572C76.3249 37.0572 76.5152 36.867 76.5152 36.6323C76.5143 36.4519 76.5901 36.2799 76.7238 36.1588C76.8585 36.0384 77.0372 35.9795 77.2172 35.9966C77.3816 36.022 77.5309 36.107 77.6365 36.2355C77.7421 36.364 77.7969 36.5268 77.7902 36.6931V37.0572C77.7902 37.292 77.9803 37.4823 78.2151 37.4823C78.4499 37.4823 78.64 37.292 78.64 37.0572C78.639 36.8768 78.7151 36.7045 78.8492 36.5839C78.9835 36.4627 79.1626 36.4037 79.3426 36.4215C79.507 36.4469 79.656 36.5321 79.7616 36.6606C79.8672 36.789 79.9217 36.9519 79.915 37.118V42.3749C79.9226 42.9646 79.8139 43.5502 79.595 44.0978C79.5525 44.1972 79.4968 44.3103 79.4317 44.4407H79.4319C78.9224 45.3697 78.6503 46.4103 78.64 47.4697V50.8696H73.9655C73.7306 50.8696 73.5404 50.6793 73.5404 50.4445V49.1695C73.5404 49.0476 73.5352 48.9261 73.5263 48.8101C73.3746 46.7964 71.9595 45.6413 71.2798 45.0864C71.1731 45.0014 71.0831 44.9267 71.0171 44.865H71.0173C70.441 44.306 70.0507 43.5832 69.8995 42.7948H70.9905C71.3285 42.7948 71.653 42.6605 71.8921 42.4214C72.1311 42.1824 72.2654 41.858 72.2654 41.5198L72.2653 36.2679ZM56.1188 42.6477C56.1001 42.4681 56.1587 42.289 56.2796 42.1549C56.4005 42.0207 56.5727 41.9443 56.7534 41.9445C56.988 41.9445 57.1783 41.7541 57.1783 41.5194C57.1783 41.2848 56.988 41.0944 56.7534 41.0944C56.5725 41.0953 56.3996 41.0194 56.2781 40.8854C56.1564 40.7515 56.0975 40.5724 56.1159 40.3924C56.1413 40.2277 56.2267 40.0781 56.3555 39.9724C56.4842 39.8668 56.6475 39.8124 56.814 39.8195H57.1783C57.4131 39.8195 57.6032 39.6292 57.6032 39.3946C57.6032 39.1598 57.4131 38.9695 57.1783 38.9695C56.9974 38.9705 56.8247 38.8946 56.7031 38.7606C56.5816 38.6267 56.5225 38.4475 56.5408 38.2674C56.5663 38.1027 56.6516 37.9533 56.7804 37.8475C56.9094 37.7418 57.0726 37.6874 57.2391 37.6945H57.6032C57.838 37.6945 58.0283 37.5044 58.0283 37.2696C58.0283 37.0348 57.838 36.8447 57.6032 36.8447C57.4223 36.8456 57.2494 36.7696 57.1279 36.6355C57.0063 36.5016 56.9474 36.3221 56.9657 36.1421C56.9913 35.9775 57.0767 35.8281 57.2055 35.7225C57.3344 35.6168 57.4975 35.5624 57.664 35.5697H62.9209C63.5106 35.562 64.0961 35.6708 64.6438 35.8896C64.7432 35.9322 64.8563 35.9879 64.9867 36.0529V36.0528C65.9157 36.5623 66.9562 36.8343 68.0156 36.8447H71.4156V41.5192C71.4156 41.632 71.3707 41.7401 71.2911 41.8198C71.2114 41.8995 71.1032 41.9443 70.9905 41.9443H69.7155C69.5935 41.9443 69.472 41.9495 69.3561 41.9584C67.3424 42.1101 66.1873 43.5252 65.6324 44.2049C65.5474 44.3116 65.4727 44.4015 65.411 44.4676V44.4673C64.8519 45.0436 64.1292 45.434 63.3407 45.5851V44.4942C63.3407 44.1561 63.2065 43.8317 62.9674 43.5926C62.7283 43.3536 62.4039 43.2192 62.0658 43.2192H56.8143C56.6485 43.2257 56.4861 43.171 56.3579 43.0658C56.2298 42.9603 56.1448 42.8116 56.119 42.6476L56.1188 42.6477Z" fill="#1DCB2E"/>
<path d="M107.95 55H110.898V41.58H115.276V39.27H103.572V41.58H107.95V55ZM120.816 55.22C123.764 55.22 125.722 53.9 126.096 51.48H123.522C123.324 52.602 122.488 53.24 120.882 53.24C118.902 53.24 117.802 52.008 117.714 49.83H126.14V49.06C126.14 44.946 123.566 43.252 120.706 43.252C117.428 43.252 114.986 45.628 114.986 49.192V49.368C114.986 52.998 117.428 55.22 120.816 55.22ZM117.758 48.048C118.022 46.266 119.1 45.188 120.706 45.188C122.356 45.188 123.368 46.068 123.5 48.048H117.758ZM131.639 55.22C133.399 55.22 134.411 54.582 135.159 53.592V55H137.777V47.454C137.777 44.308 135.753 43.252 133.179 43.252C130.605 43.252 128.471 44.374 128.251 47.058H130.825C130.957 45.914 131.639 45.254 133.025 45.254C134.587 45.254 135.115 46.024 135.115 47.564V48.158H133.685C130.385 48.158 127.789 49.126 127.789 51.81C127.789 54.208 129.527 55.22 131.639 55.22ZM132.277 53.306C130.957 53.306 130.429 52.668 130.429 51.7C130.429 50.292 131.727 49.83 133.751 49.83H135.115V50.974C135.115 52.448 133.905 53.306 132.277 53.306ZM140.828 55H143.49V48.114C143.49 46.354 144.7 45.474 146.02 45.474C147.318 45.474 148.066 46.2 148.066 47.894V55H150.728V48.114C150.728 46.354 151.938 45.474 153.258 45.474C154.578 45.474 155.304 46.2 155.304 47.894V55H157.966V47.718C157.966 44.55 156.25 43.252 154.138 43.252C152.708 43.252 151.124 43.89 150.244 45.32C149.672 43.89 148.484 43.252 146.988 43.252C145.294 43.252 144.04 44.176 143.49 45.254V43.494H140.828V55ZM163.185 55H165.913L168.245 47.256L170.379 55H173.085L176.693 43.494H174.097L171.699 51.81L169.455 43.494H167.233L164.791 51.81L162.503 43.494H159.665L163.185 55ZM183.552 53.152C181.528 53.152 180.362 51.678 180.362 49.324V49.148C180.362 46.772 181.572 45.342 183.552 45.342C185.532 45.342 186.72 46.794 186.72 49.17V49.324C186.72 51.678 185.532 53.152 183.552 53.152ZM183.53 55.22C186.918 55.22 189.448 52.888 189.448 49.302V49.126C189.448 45.606 186.918 43.252 183.552 43.252C180.164 43.252 177.634 45.628 177.634 49.192V49.368C177.634 52.866 180.142 55.22 183.53 55.22ZM191.854 55H194.516V49.016C194.516 46.574 195.924 45.826 198.256 45.804V43.318C196.32 43.34 195.242 44.198 194.516 45.65V43.494H191.854V55ZM200.598 55H203.26V49.346L207.572 55H210.652L205.812 48.774L210.278 43.494H207.374L203.26 48.554V38.17H200.598V55Z" fill="#FFFAFA"/>
<rect x="10" y="6" width="233" height="83" rx="41.5" stroke="white" stroke-width="4" shape-rendering="crispEdges"/>
</g>
<g filter="url(#filter1_d_400_154)">
<g clip-path="url(#clip0_400_154)">
<path d="M336.966 47.2308C336.966 33.3747 325.733 22.1421 311.877 22.1421C298.021 22.1421 286.788 33.3747 286.788 47.2308C286.788 61.0869 298.021 72.3195 311.877 72.3195C325.733 72.3195 336.966 61.0869 336.966 47.2308Z" fill="#FEF4F2"/>
<path d="M316.253 42.6813C316.253 42.4616 316.431 42.2835 316.651 42.2835H319.684C319.903 42.2835 320.082 42.4616 320.082 42.6813C320.082 42.9011 319.903 43.0792 319.684 43.0792H316.651C316.431 43.0796 316.253 42.9013 316.253 42.6813ZM314.582 42.2835H310.377C310.157 42.2835 309.979 42.4616 309.979 42.6813C309.979 42.9011 310.157 43.0792 310.377 43.0792H314.582C314.801 43.0792 314.979 42.9011 314.979 42.6813C314.98 42.4616 314.801 42.2835 314.582 42.2835ZM301.759 43.5751V36.088C301.759 35.2102 302.473 34.4961 303.351 34.4961H315.886C316.764 34.4961 317.478 35.2102 317.478 36.088V39.3533H321.298C322.176 39.3533 322.89 40.0674 322.89 40.9451V48.4318C322.89 48.602 322.782 48.7535 322.621 48.8084C322.579 48.8227 322.535 48.8296 322.493 48.8296C322.372 48.8296 322.254 48.7745 322.178 48.6751L320.118 46.0092L308.763 46.0093C307.885 46.0093 307.171 45.2953 307.171 44.4175V41.1522H304.531L302.471 43.8182C302.395 43.9175 302.277 43.9726 302.156 43.9726C302.114 43.9726 302.07 43.9656 302.028 43.9514C301.867 43.8963 301.759 43.7452 301.759 43.575V43.5751ZM315.886 41.1523H307.967V44.4176C307.967 44.8567 308.324 45.2137 308.763 45.2137H320.313C320.436 45.2137 320.552 45.2708 320.628 45.3681L322.094 47.2663L322.094 40.9455C322.094 40.5064 321.737 40.1494 321.298 40.1494L317.365 40.1497C317.13 40.7366 316.556 41.1525 315.886 41.1525V41.1523ZM302.555 42.409L304.022 40.5108C304.097 40.4133 304.213 40.3563 304.337 40.3563H315.886C316.326 40.3563 316.682 39.9993 316.682 39.5602V36.0882C316.682 35.6491 316.326 35.2921 315.886 35.2921L303.351 35.2924C302.912 35.2924 302.555 35.6493 302.555 36.0884L302.555 42.409ZM304.965 38.2225H307.998C308.218 38.2225 308.396 38.0444 308.396 37.8247C308.396 37.6049 308.218 37.4268 307.998 37.4268H304.965C304.746 37.4268 304.567 37.6049 304.567 37.8247C304.567 38.0444 304.745 38.2225 304.965 38.2225ZM310.067 38.2225H314.272C314.492 38.2225 314.67 38.0444 314.67 37.8247C314.67 37.6049 314.492 37.4268 314.272 37.4268H310.067C309.847 37.4268 309.669 37.6049 309.669 37.8247C309.669 38.0444 309.847 38.2225 310.067 38.2225ZM309.813 57.9251C309.965 58.4149 309.881 58.9121 309.577 59.3251C309.272 59.7381 308.822 59.9654 308.309 59.9654H300.72C300.207 59.9654 299.757 59.738 299.453 59.3251C299.149 58.9121 299.065 58.4149 299.216 57.9251C299.559 56.8178 300.262 55.8236 301.194 55.1254C301.691 54.7533 302.237 54.4726 302.814 54.2866C302.029 53.7448 301.514 52.8397 301.514 51.8163C301.514 50.1616 302.86 48.8153 304.515 48.8153C306.169 48.8153 307.516 50.1614 307.516 51.8163C307.516 52.8399 307 53.7446 306.216 54.2866C306.793 54.4723 307.339 54.7533 307.836 55.1254C308.769 55.8238 309.471 56.8181 309.814 57.9251H309.813ZM304.514 54.0214H304.515H304.516C305.731 54.0212 306.72 53.0321 306.72 51.8165C306.72 50.6005 305.731 49.6116 304.515 49.6116C303.299 49.6116 302.31 50.6007 302.31 51.8165C302.31 53.0323 303.299 54.0213 304.514 54.0214H304.514ZM309.053 58.1605C308.434 56.1611 306.611 54.8178 304.515 54.8175H304.515H304.514C302.419 54.8176 300.596 56.1611 299.976 58.1605C299.899 58.4101 299.938 58.6429 300.093 58.8529C300.248 59.063 300.459 59.1696 300.72 59.1696H308.309C308.57 59.1696 308.781 59.0629 308.936 58.8529C309.091 58.6429 309.13 58.4098 309.053 58.1605H309.053ZM324.301 59.3251C323.997 59.7381 323.546 59.9654 323.034 59.9654H315.445C314.932 59.9654 314.482 59.738 314.177 59.3251C313.873 58.9121 313.789 58.4149 313.941 57.9251C314.284 56.8178 314.986 55.8236 315.918 55.1254C316.415 54.7533 316.961 54.4726 317.538 54.2866C316.754 53.7448 316.238 52.8397 316.238 51.8163C316.238 50.1616 317.584 48.8153 319.239 48.8153C320.894 48.8153 322.24 50.1614 322.24 51.8163C322.24 52.8399 321.725 53.7446 320.94 54.2866C321.518 54.4723 322.063 54.7533 322.56 55.1254C323.493 55.8236 324.195 56.8178 324.538 57.9251C324.689 58.4153 324.605 58.9125 324.301 59.3251H324.301ZM319.239 54.0213H319.239H319.24C320.455 54.0211 321.444 53.032 321.444 51.8164C321.444 50.6004 320.455 49.6115 319.239 49.6115C318.023 49.6115 317.034 50.6006 317.034 51.8164C317.034 53.0322 318.023 54.0211 319.239 54.0213H319.239ZM323.777 58.1604C323.158 56.161 321.335 54.8177 319.239 54.8173H319.239H319.238C317.143 54.8175 315.32 56.161 314.7 58.1604C314.623 58.4099 314.663 58.6428 314.817 58.8528C314.972 59.063 315.183 59.1694 315.444 59.1694H323.033C323.294 59.1694 323.505 59.0628 323.66 58.8528C323.815 58.6428 323.854 58.4097 323.777 58.1604H323.777Z" fill="#E7332B"/>
</g>
<path d="M349.304 55H351.944V43.12L356.718 55H357.664L362.35 43.12V55H365.276V39.27H361.404L357.356 50.006L353.22 39.27H349.304V55ZM373.609 55.22C376.557 55.22 378.515 53.9 378.889 51.48H376.315C376.117 52.602 375.281 53.24 373.675 53.24C371.695 53.24 370.595 52.008 370.507 49.83H378.933V49.06C378.933 44.946 376.359 43.252 373.499 43.252C370.221 43.252 367.779 45.628 367.779 49.192V49.368C367.779 52.998 370.221 55.22 373.609 55.22ZM370.551 48.048C370.815 46.266 371.893 45.188 373.499 45.188C375.149 45.188 376.161 46.068 376.293 48.048H370.551ZM381.311 55H383.973V48.224C383.973 46.398 385.183 45.474 386.679 45.474C388.263 45.474 388.967 46.266 388.967 48.004V55H391.629V47.762C391.629 44.594 390.001 43.252 387.691 43.252C385.799 43.252 384.523 44.198 383.973 45.32V43.494H381.311V55ZM398.611 55.198C399.425 55.198 399.997 55.066 400.415 54.912V52.8C400.041 52.954 399.645 53.02 399.117 53.02C398.281 53.02 397.797 52.558 397.797 51.546V45.496H400.327V43.494H397.797V40.964H395.135V43.494H393.595V45.496H395.135V51.788C395.135 53.966 396.323 55.198 398.611 55.198ZM407.964 53.152C405.94 53.152 404.774 51.678 404.774 49.324V49.148C404.774 46.772 405.984 45.342 407.964 45.342C409.944 45.342 411.132 46.794 411.132 49.17V49.324C411.132 51.678 409.944 53.152 407.964 53.152ZM407.942 55.22C411.33 55.22 413.86 52.888 413.86 49.302V49.126C413.86 45.606 411.33 43.252 407.964 43.252C404.576 43.252 402.046 45.628 402.046 49.192V49.368C402.046 52.866 404.554 55.22 407.942 55.22ZM416.266 55H418.928V49.016C418.928 46.574 420.336 45.826 422.668 45.804V43.318C420.732 43.34 419.654 44.198 418.928 45.65V43.494H416.266V55ZM428.948 55.22C431.896 55.22 433.546 53.878 433.546 51.546C433.546 49.104 431.94 48.444 429.234 48.026C427.408 47.718 426.858 47.388 426.858 46.552C426.858 45.738 427.54 45.188 428.684 45.188C429.916 45.188 430.51 45.672 430.73 46.728H433.194C432.908 44.132 431.038 43.252 428.684 43.252C426.528 43.252 424.372 44.396 424.372 46.706C424.372 48.862 425.494 49.72 428.53 50.204C430.224 50.49 430.994 50.842 430.994 51.788C430.994 52.756 430.356 53.262 428.926 53.262C427.364 53.262 426.77 52.58 426.638 51.414H424.13C424.24 53.856 425.978 55.22 428.948 55.22ZM435.881 55H438.543V48.224C438.543 46.398 439.753 45.474 441.249 45.474C442.833 45.474 443.537 46.266 443.537 48.004V55H446.199V47.762C446.199 44.594 444.571 43.252 442.261 43.252C440.369 43.252 439.093 44.198 438.543 45.32V38.17H435.881V55ZM449.332 55H451.994V43.494H449.332V55ZM450.63 41.602C451.51 41.602 452.214 40.942 452.214 40.084C452.214 39.204 451.51 38.544 450.63 38.544C449.75 38.544 449.046 39.204 449.046 40.084C449.046 40.942 449.75 41.602 450.63 41.602ZM455.238 58.938H457.9V53.196C458.516 54.318 459.836 55.22 461.662 55.22C464.632 55.22 466.766 52.976 466.766 49.28V49.104C466.766 45.386 464.544 43.252 461.662 43.252C459.968 43.252 458.538 44.242 457.9 45.342V43.494H455.238V58.938ZM461.002 53.108C459.066 53.108 457.812 51.898 457.812 49.324V49.148C457.812 46.596 459.132 45.342 460.98 45.342C462.718 45.342 464.038 46.596 464.038 49.148V49.324C464.038 51.788 462.96 53.108 461.002 53.108Z" fill="#FFFAFA"/>
<rect x="261" y="6" width="233" height="83" rx="41.5" stroke="white" stroke-width="4" shape-rendering="crispEdges"/>
</g>
<g filter="url(#filter2_d_400_154)">
<g clip-path="url(#clip1_400_154)">
<path d="M103.102 149.52C103.102 135.664 91.869 124.431 78.0129 124.431C64.1568 124.431 52.9242 135.664 52.9242 149.52C52.9242 163.376 64.1568 174.609 78.0129 174.609C91.869 174.609 103.102 163.376 103.102 149.52Z" fill="#F8F2FF"/>
<path d="M66.2561 160.017V139.023C66.2561 138.689 66.3888 138.368 66.625 138.132C66.8612 137.896 67.1818 137.763 67.5157 137.763H80.5323V139.863C80.5323 140.197 80.6651 140.517 80.9013 140.753C81.1374 140.989 81.458 141.122 81.792 141.122H83.8914V149.52H84.7312V140.702C84.7312 140.591 84.687 140.484 84.6082 140.405L81.2491 137.046C81.1704 136.968 81.0636 136.923 80.9522 136.923H67.5157C66.9592 136.924 66.4255 137.145 66.0319 137.539C65.6384 137.933 65.4171 138.466 65.4163 139.023V160.017C65.417 160.574 65.6384 161.108 66.0319 161.501C66.4255 161.895 66.9592 162.116 67.5157 162.117H80.5323V161.277H67.5157C67.1817 161.277 66.8611 161.144 66.625 160.908C66.3889 160.672 66.2561 160.351 66.2561 160.017ZM81.3722 139.863V138.357L83.2978 140.282H81.792C81.5601 140.282 81.3722 140.094 81.3722 139.863Z" fill="#D365FF"/>
<path d="M78.4327 144.481C78.4329 143.58 78.0711 142.717 77.4287 142.086C76.7863 141.454 75.9173 141.107 75.0164 141.122C74.1597 141.146 73.3438 141.492 72.7319 142.092C72.1199 142.692 71.7573 143.501 71.7169 144.357C71.6837 145.299 72.0472 146.212 72.7188 146.872C73.1003 147.239 73.3346 147.733 73.3777 148.26H72.5542V149.1H73.394V149.94C73.394 150.162 73.4825 150.376 73.64 150.534C73.7974 150.691 74.0111 150.78 74.2338 150.78H75.9133C76.136 150.78 76.3497 150.691 76.5072 150.534C76.6647 150.376 76.7531 150.162 76.7531 149.94V149.1H77.5929V148.26H76.7687C76.8041 147.746 77.0285 147.263 77.3985 146.904C78.0621 146.273 78.4363 145.397 78.4327 144.481ZM74.2338 149.94V149.1H75.9133V149.94H74.2338ZM75.9174 148.26H74.2297C74.1822 147.506 73.8525 146.796 73.3059 146.274C72.7985 145.781 72.5251 145.095 72.5542 144.388C72.5788 143.734 72.857 143.115 73.3299 142.662C73.8028 142.209 74.4334 141.959 75.0882 141.963C75.7428 141.967 76.37 142.226 76.8371 142.685C77.3226 143.162 77.594 143.815 77.5896 144.495C77.5851 145.176 77.3048 145.826 76.8132 146.296C76.2766 146.814 75.9564 147.516 75.9174 148.26Z" fill="#D365FF"/>
<path d="M75.0737 144.901C74.8418 144.901 74.6537 144.713 74.6537 144.481H73.814C73.8151 144.741 73.8962 144.994 74.0466 145.206C74.197 145.417 74.4089 145.577 74.6537 145.664V147.421H75.4935V145.664C75.7383 145.577 75.9503 145.417 76.1007 145.206C76.2509 144.994 76.3321 144.741 76.3333 144.481H75.4935C75.4935 144.593 75.4493 144.7 75.3705 144.778C75.2918 144.857 75.185 144.901 75.0736 144.901H75.0737Z" fill="#D365FF"/>
<path d="M74.6538 139.443H75.4936V140.282H74.6538V139.443Z" fill="#D365FF"/>
<path d="M72.1912 140.328L72.9184 139.908L73.3383 140.635L72.611 141.055L72.1912 140.328Z" fill="#D365FF"/>
<path d="M70.5 142.326L70.9198 141.598L71.6472 142.018L71.2273 142.746L70.5 142.326Z" fill="#D365FF"/>
<path d="M70.0352 144.062H70.8749V144.901H70.0352V144.062Z" fill="#D365FF"/>
<path d="M70.4995 146.637L71.2268 146.218L71.6467 146.945L70.9194 147.365L70.4995 146.637Z" fill="#D365FF"/>
<path d="M78.5 146.945L78.9199 146.217L79.6473 146.637L79.2273 147.364L78.5 146.945Z" fill="#D365FF"/>
<path d="M79.2727 144.062H80.1125V144.901H79.2727V144.062Z" fill="#D365FF"/>
<path d="M78.5 142.018L79.2273 141.598L79.6473 142.325L78.9199 142.745L78.5 142.018Z" fill="#D365FF"/>
<path d="M76.8093 140.635L77.2293 139.908L77.9565 140.328L77.5367 141.055L76.8093 140.635Z" fill="#D365FF"/>
<path d="M90.2492 154.983L89.123 154.822C89.0469 154.585 88.9517 154.355 88.8379 154.134L89.5203 153.225C89.6456 153.057 89.629 152.824 89.4813 152.676L88.2938 151.488C88.1462 151.341 87.9125 151.324 87.7455 151.449L86.8356 152.131V152.131C86.6142 152.018 86.3842 151.923 86.1474 151.847L85.9866 150.72C85.9568 150.514 85.7797 150.36 85.5708 150.36H83.8913C83.6825 150.36 83.5053 150.514 83.4755 150.72L83.3146 151.847C83.0779 151.923 82.8477 152.018 82.6265 152.131L81.7166 151.449V151.449C81.5496 151.324 81.3158 151.341 81.1684 151.488L79.9809 152.676C79.8331 152.824 79.8164 153.057 79.9419 153.225L80.6242 154.134C80.5104 154.355 80.4152 154.585 80.3391 154.822L79.2128 154.983C79.0061 155.013 78.8525 155.19 78.8525 155.399V157.078C78.8525 157.287 79.0061 157.464 79.2128 157.494L80.3391 157.655C80.4152 157.892 80.5104 158.122 80.6242 158.343L79.9419 159.253C79.8164 159.42 79.8331 159.654 79.9809 159.801L81.1684 160.989C81.3158 161.136 81.5496 161.153 81.7166 161.028L82.6265 160.346V160.346C82.8477 160.46 83.0779 160.555 83.3146 160.631L83.4755 161.757C83.5053 161.964 83.6825 162.117 83.8913 162.117H85.5708C85.7797 162.117 85.9568 161.964 85.9866 161.757L86.1474 160.631C86.3842 160.555 86.6142 160.46 86.8356 160.346L87.7455 161.028V161.028C87.9124 161.153 88.1462 161.136 88.2938 160.989L89.4813 159.801C89.629 159.654 89.6456 159.42 89.5203 159.253L88.8379 158.343C88.9517 158.122 89.0469 157.892 89.123 157.655L90.2492 157.494C90.456 157.464 90.6095 157.287 90.6095 157.078V155.399C90.6095 155.19 90.456 155.013 90.2492 154.983ZM89.7697 156.714L88.7356 156.862C88.5675 156.886 88.4304 157.009 88.3882 157.174C88.2997 157.521 88.1616 157.855 87.9781 158.163C87.8913 158.31 87.9014 158.494 88.0037 158.63L88.6302 159.466L87.9584 160.137L87.1224 159.511V159.511C86.9865 159.409 86.8024 159.399 86.6562 159.486C86.3481 159.669 86.0148 159.807 85.667 159.895C85.502 159.937 85.3787 160.074 85.3545 160.243L85.2068 161.277H84.2553L84.108 160.243C84.084 160.075 83.9605 159.937 83.7955 159.895C83.4478 159.807 83.1145 159.67 82.8064 159.486C82.6602 159.399 82.4763 159.409 82.3402 159.511L81.5041 160.138L80.8323 159.466L81.4588 158.63H81.459C81.5611 158.494 81.5713 158.31 81.4845 158.164C81.3011 157.855 81.163 157.522 81.0743 157.174C81.0321 157.01 80.8951 156.887 80.727 156.863L79.6924 156.714V155.763L80.7266 155.615C80.8948 155.591 81.0318 155.468 81.0739 155.304C81.1624 154.956 81.3005 154.622 81.4841 154.314C81.5708 154.168 81.5607 153.983 81.4584 153.847L80.8319 153.012L81.5037 152.34L82.3398 152.966V152.967C82.4757 153.068 82.6598 153.078 82.8059 152.992C83.1142 152.808 83.4474 152.67 83.7952 152.582C83.9601 152.54 84.0834 152.403 84.1076 152.235L84.2553 151.2H85.2068L85.3541 152.234C85.3782 152.403 85.5017 152.54 85.6666 152.582C86.0143 152.67 86.3476 152.808 86.6558 152.991C86.802 153.078 86.9859 153.068 87.122 152.966L87.958 152.339L88.6298 153.011L88.0034 153.847H88.0032C87.901 153.983 87.8909 154.167 87.9777 154.314C88.161 154.622 88.2991 154.955 88.3878 155.303C88.43 155.468 88.5671 155.591 88.7352 155.615L89.7697 155.763V156.714Z" fill="#D365FF"/>
<path d="M84.7311 153.719C84.0628 153.719 83.4221 153.984 82.9495 154.457C82.4771 154.929 82.2117 155.57 82.2117 156.238C82.2117 156.907 82.4771 157.547 82.9495 158.02C83.4221 158.492 84.0628 158.758 84.7311 158.758C85.3993 158.758 86.04 158.492 86.5126 158.02C86.9849 157.547 87.2504 156.907 87.2504 156.238C87.2496 155.57 86.984 154.93 86.5118 154.458C86.0395 153.985 85.3989 153.72 84.7311 153.719ZM84.7311 157.918C84.2856 157.918 83.8585 157.741 83.5433 157.426C83.2285 157.111 83.0514 156.684 83.0514 156.238C83.0514 155.793 83.2285 155.366 83.5433 155.051C83.8585 154.736 84.2856 154.559 84.7311 154.559C85.1764 154.559 85.6037 154.736 85.9187 155.051C86.2337 155.366 86.4106 155.793 86.4106 156.238C86.4106 156.684 86.2337 157.111 85.9187 157.426C85.6037 157.741 85.1764 157.918 84.7311 157.918Z" fill="#D365FF"/>
<path d="M84.3113 152.04H85.1511V152.879H84.3113V152.04Z" fill="#D365FF"/>
<path d="M81.4651 153.566L82.059 152.973L82.6526 153.566L82.0587 154.16L81.4651 153.566Z" fill="#D365FF"/>
<path d="M80.5322 155.818H81.372V156.658H80.5322V155.818Z" fill="#D365FF"/>
<path d="M81.4651 158.91L82.059 158.316L82.6528 158.91L82.059 159.504L81.4651 158.91Z" fill="#D365FF"/>
<path d="M84.3113 159.597H85.1511V160.437H84.3113V159.597Z" fill="#D365FF"/>
<path d="M86.8096 158.911L87.4034 158.317L87.997 158.911L87.4032 159.505L86.8096 158.911Z" fill="#D365FF"/>
<path d="M88.0903 155.818H88.9301V156.658H88.0903V155.818Z" fill="#D365FF"/>
<path d="M86.8096 153.566L87.4032 152.972L87.997 153.566L87.4034 154.16L86.8096 153.566Z" fill="#D365FF"/>
<path d="M67.9355 152.459H75.4936V153.299H67.9355V152.459Z" fill="#D365FF"/>
<path d="M76.3333 152.459H78.0128V153.299H76.3333V152.459Z" fill="#D365FF"/>
<path d="M67.9355 154.139H78.0129V154.979H67.9355V154.139Z" fill="#D365FF"/>
<path d="M67.9355 155.818H68.7753V156.658H67.9355V155.818Z" fill="#D365FF"/>
<path d="M69.615 155.818H78.0128V156.658H69.615V155.818Z" fill="#D365FF"/>
<path d="M67.9355 157.498H78.0129V158.338H67.9355V157.498Z" fill="#D365FF"/>
</g>
<path d="M115.304 157H118.23V151.016H120.43C123.796 151.016 126.194 149.542 126.194 146.22V146.132C126.194 142.832 123.884 141.27 120.364 141.27H115.304V157ZM118.23 148.904V143.536H120.364C122.234 143.536 123.334 144.262 123.334 146.132V146.22C123.334 147.958 122.3 148.904 120.364 148.904H118.23ZM128.49 157H131.152V151.016C131.152 148.574 132.56 147.826 134.892 147.804V145.318C132.956 145.34 131.878 146.198 131.152 147.65V145.494H128.49V157ZM140.034 157.22C141.794 157.22 142.806 156.582 143.554 155.592V157H146.172V149.454C146.172 146.308 144.148 145.252 141.574 145.252C139 145.252 136.866 146.374 136.646 149.058H139.22C139.352 147.914 140.034 147.254 141.42 147.254C142.982 147.254 143.51 148.024 143.51 149.564V150.158H142.08C138.78 150.158 136.184 151.126 136.184 153.81C136.184 156.208 137.922 157.22 140.034 157.22ZM140.672 155.306C139.352 155.306 138.824 154.668 138.824 153.7C138.824 152.292 140.122 151.83 142.146 151.83H143.51V152.974C143.51 154.448 142.3 155.306 140.672 155.306ZM154.261 157.22C157.385 157.22 159.387 155.35 159.585 152.71H157.143C156.989 154.338 155.779 155.174 154.371 155.174C152.413 155.174 151.181 153.854 151.181 151.346V151.17C151.181 148.794 152.479 147.386 154.305 147.386C155.713 147.386 156.725 148.024 156.945 149.564H159.519C159.211 146.396 156.813 145.252 154.261 145.252C151.049 145.252 148.453 147.562 148.453 151.214V151.39C148.453 155.064 150.961 157.22 154.261 157.22ZM165.793 157.198C166.607 157.198 167.179 157.066 167.597 156.912V154.8C167.223 154.954 166.827 155.02 166.299 155.02C165.463 155.02 164.979 154.558 164.979 153.546V147.496H167.509V145.494H164.979V142.964H162.317V145.494H160.777V147.496H162.317V153.788C162.317 155.966 163.505 157.198 165.793 157.198ZM170.064 157H172.726V145.494H170.064V157ZM171.362 143.602C172.242 143.602 172.946 142.942 172.946 142.084C172.946 141.204 172.242 140.544 171.362 140.544C170.482 140.544 169.778 141.204 169.778 142.084C169.778 142.942 170.482 143.602 171.362 143.602ZM181.009 157.22C184.133 157.22 186.135 155.35 186.333 152.71H183.891C183.737 154.338 182.527 155.174 181.119 155.174C179.161 155.174 177.929 153.854 177.929 151.346V151.17C177.929 148.794 179.227 147.386 181.053 147.386C182.461 147.386 183.473 148.024 183.693 149.564H186.267C185.959 146.396 183.561 145.252 181.009 145.252C177.797 145.252 175.201 147.562 175.201 151.214V151.39C175.201 155.064 177.709 157.22 181.009 157.22ZM193.685 157.22C196.633 157.22 198.591 155.9 198.965 153.48H196.391C196.193 154.602 195.357 155.24 193.751 155.24C191.771 155.24 190.671 154.008 190.583 151.83H199.009V151.06C199.009 146.946 196.435 145.252 193.575 145.252C190.297 145.252 187.855 147.628 187.855 151.192V151.368C187.855 154.998 190.297 157.22 193.685 157.22ZM190.627 150.048C190.891 148.266 191.969 147.188 193.575 147.188C195.225 147.188 196.237 148.068 196.369 150.048H190.627Z" fill="#FFFAFA"/>
<rect x="10" y="108" width="233" height="83" rx="41.5" stroke="white" stroke-width="4" shape-rendering="crispEdges"/>
</g>
<g filter="url(#filter3_d_400_154)">
<g clip-path="url(#clip2_400_154)">
<path d="M336.966 149.231C336.966 135.375 325.733 124.142 311.877 124.142C298.021 124.142 286.788 135.375 286.788 149.231C286.788 163.087 298.021 174.32 311.877 174.32C325.733 174.32 336.966 163.087 336.966 149.231Z" fill="#FEF4F2"/>
<path d="M316.253 144.681C316.253 144.462 316.431 144.284 316.651 144.284H319.684C319.903 144.284 320.082 144.462 320.082 144.681C320.082 144.901 319.903 145.079 319.684 145.079H316.651C316.431 145.08 316.253 144.901 316.253 144.681ZM314.582 144.284H310.377C310.157 144.284 309.979 144.462 309.979 144.681C309.979 144.901 310.157 145.079 310.377 145.079H314.582C314.801 145.079 314.979 144.901 314.979 144.681C314.98 144.462 314.801 144.284 314.582 144.284ZM301.759 145.575V138.088C301.759 137.21 302.473 136.496 303.351 136.496H315.886C316.764 136.496 317.478 137.21 317.478 138.088V141.353H321.298C322.176 141.353 322.89 142.067 322.89 142.945V150.432C322.89 150.602 322.782 150.753 322.621 150.808C322.579 150.823 322.535 150.83 322.493 150.83C322.372 150.83 322.254 150.774 322.178 150.675L320.118 148.009L308.763 148.009C307.885 148.009 307.171 147.295 307.171 146.417V143.152H304.531L302.471 145.818C302.395 145.918 302.277 145.973 302.156 145.973C302.114 145.973 302.07 145.966 302.028 145.951C301.867 145.896 301.759 145.745 301.759 145.575V145.575ZM315.886 143.152H307.967V146.418C307.967 146.857 308.324 147.214 308.763 147.214H320.313C320.436 147.214 320.552 147.271 320.628 147.368L322.094 149.266L322.094 142.946C322.094 142.506 321.737 142.149 321.298 142.149L317.365 142.15C317.13 142.737 316.556 143.152 315.886 143.152V143.152ZM302.555 144.409L304.022 142.511C304.097 142.413 304.213 142.356 304.337 142.356H315.886C316.326 142.356 316.682 141.999 316.682 141.56V138.088C316.682 137.649 316.326 137.292 315.886 137.292L303.351 137.292C302.912 137.292 302.555 137.649 302.555 138.088L302.555 144.409ZM304.965 140.222H307.998C308.218 140.222 308.396 140.044 308.396 139.825C308.396 139.605 308.218 139.427 307.998 139.427H304.965C304.746 139.427 304.567 139.605 304.567 139.825C304.567 140.044 304.745 140.222 304.965 140.222ZM310.067 140.222H314.272C314.492 140.222 314.67 140.044 314.67 139.825C314.67 139.605 314.492 139.427 314.272 139.427H310.067C309.847 139.427 309.669 139.605 309.669 139.825C309.669 140.044 309.847 140.222 310.067 140.222ZM309.813 159.925C309.965 160.415 309.881 160.912 309.577 161.325C309.272 161.738 308.822 161.965 308.309 161.965H300.72C300.207 161.965 299.757 161.738 299.453 161.325C299.149 160.912 299.065 160.415 299.216 159.925C299.559 158.818 300.262 157.824 301.194 157.125C301.691 156.753 302.237 156.473 302.814 156.287C302.029 155.745 301.514 154.84 301.514 153.816C301.514 152.162 302.86 150.815 304.515 150.815C306.169 150.815 307.516 152.161 307.516 153.816C307.516 154.84 307 155.745 306.216 156.287C306.793 156.472 307.339 156.753 307.836 157.125C308.769 157.824 309.471 158.818 309.814 159.925H309.813ZM304.514 156.021H304.515H304.515C305.731 156.021 306.72 155.032 306.72 153.817C306.72 152.6 305.731 151.612 304.515 151.612C303.299 151.612 302.31 152.601 302.31 153.817C302.31 155.032 303.299 156.021 304.514 156.021H304.514ZM309.053 160.161C308.434 158.161 306.611 156.818 304.515 156.817H304.515H304.514C302.419 156.818 300.596 158.161 299.976 160.161C299.899 160.41 299.938 160.643 300.093 160.853C300.248 161.063 300.459 161.17 300.72 161.17H308.309C308.57 161.17 308.781 161.063 308.936 160.853C309.091 160.643 309.13 160.41 309.053 160.161H309.053ZM324.301 161.325C323.997 161.738 323.546 161.965 323.034 161.965H315.445C314.932 161.965 314.482 161.738 314.177 161.325C313.873 160.912 313.789 160.415 313.941 159.925C314.284 158.818 314.986 157.824 315.918 157.125C316.415 156.753 316.961 156.473 317.538 156.287C316.754 155.745 316.238 154.84 316.238 153.816C316.238 152.162 317.584 150.815 319.239 150.815C320.894 150.815 322.24 152.161 322.24 153.816C322.24 154.84 321.725 155.745 320.94 156.287C321.518 156.472 322.063 156.753 322.56 157.125C323.493 157.824 324.195 158.818 324.538 159.925C324.689 160.415 324.605 160.913 324.301 161.325H324.301ZM319.239 156.021H319.239H319.24C320.455 156.021 321.444 155.032 321.444 153.816C321.444 152.6 320.455 151.612 319.239 151.612C318.023 151.612 317.034 152.601 317.034 153.816C317.034 155.032 318.023 156.021 319.239 156.021H319.239ZM323.777 160.16C323.158 158.161 321.335 156.818 319.239 156.817H319.239H319.238C317.143 156.818 315.32 158.161 314.7 160.16C314.623 160.41 314.663 160.643 314.817 160.853C314.972 161.063 315.183 161.169 315.444 161.169H323.033C323.294 161.169 323.505 161.063 323.66 160.853C323.815 160.643 323.854 160.41 323.777 160.16H323.777Z" fill="#E7332B"/>
</g>
<path d="M349.304 157H351.944V145.12L356.718 157H357.664L362.35 145.12V157H365.276V141.27H361.404L357.356 152.006L353.22 141.27H349.304V157ZM373.609 157.22C376.557 157.22 378.515 155.9 378.889 153.48H376.315C376.117 154.602 375.281 155.24 373.675 155.24C371.695 155.24 370.595 154.008 370.507 151.83H378.933V151.06C378.933 146.946 376.359 145.252 373.499 145.252C370.221 145.252 367.779 147.628 367.779 151.192V151.368C367.779 154.998 370.221 157.22 373.609 157.22ZM370.551 150.048C370.815 148.266 371.893 147.188 373.499 147.188C375.149 147.188 376.161 148.068 376.293 150.048H370.551ZM381.311 157H383.973V150.224C383.973 148.398 385.183 147.474 386.679 147.474C388.263 147.474 388.967 148.266 388.967 150.004V157H391.629V149.762C391.629 146.594 390.001 145.252 387.691 145.252C385.799 145.252 384.523 146.198 383.973 147.32V145.494H381.311V157ZM398.611 157.198C399.425 157.198 399.997 157.066 400.415 156.912V154.8C400.041 154.954 399.645 155.02 399.117 155.02C398.281 155.02 397.797 154.558 397.797 153.546V147.496H400.327V145.494H397.797V142.964H395.135V145.494H393.595V147.496H395.135V153.788C395.135 155.966 396.323 157.198 398.611 157.198ZM407.964 155.152C405.94 155.152 404.774 153.678 404.774 151.324V151.148C404.774 148.772 405.984 147.342 407.964 147.342C409.944 147.342 411.132 148.794 411.132 151.17V151.324C411.132 153.678 409.944 155.152 407.964 155.152ZM407.942 157.22C411.33 157.22 413.86 154.888 413.86 151.302V151.126C413.86 147.606 411.33 145.252 407.964 145.252C404.576 145.252 402.046 147.628 402.046 151.192V151.368C402.046 154.866 404.554 157.22 407.942 157.22ZM416.266 157H418.928V151.016C418.928 148.574 420.336 147.826 422.668 147.804V145.318C420.732 145.34 419.654 146.198 418.928 147.65V145.494H416.266V157ZM428.948 157.22C431.896 157.22 433.546 155.878 433.546 153.546C433.546 151.104 431.94 150.444 429.234 150.026C427.408 149.718 426.858 149.388 426.858 148.552C426.858 147.738 427.54 147.188 428.684 147.188C429.916 147.188 430.51 147.672 430.73 148.728H433.194C432.908 146.132 431.038 145.252 428.684 145.252C426.528 145.252 424.372 146.396 424.372 148.706C424.372 150.862 425.494 151.72 428.53 152.204C430.224 152.49 430.994 152.842 430.994 153.788C430.994 154.756 430.356 155.262 428.926 155.262C427.364 155.262 426.77 154.58 426.638 153.414H424.13C424.24 155.856 425.978 157.22 428.948 157.22ZM435.881 157H438.543V150.224C438.543 148.398 439.753 147.474 441.249 147.474C442.833 147.474 443.537 148.266 443.537 150.004V157H446.199V149.762C446.199 146.594 444.571 145.252 442.261 145.252C440.369 145.252 439.093 146.198 438.543 147.32V140.17H435.881V157ZM449.332 157H451.994V145.494H449.332V157ZM450.63 143.602C451.51 143.602 452.214 142.942 452.214 142.084C452.214 141.204 451.51 140.544 450.63 140.544C449.75 140.544 449.046 141.204 449.046 142.084C449.046 142.942 449.75 143.602 450.63 143.602ZM455.238 160.938H457.9V155.196C458.516 156.318 459.836 157.22 461.662 157.22C464.632 157.22 466.766 154.976 466.766 151.28V151.104C466.766 147.386 464.544 145.252 461.662 145.252C459.968 145.252 458.538 146.242 457.9 147.342V145.494H455.238V160.938ZM461.002 155.108C459.066 155.108 457.812 153.898 457.812 151.324V151.148C457.812 148.596 459.132 147.342 460.98 147.342C462.718 147.342 464.038 148.596 464.038 151.148V151.324C464.038 153.788 462.96 155.108 461.002 155.108Z" fill="#FFFAFA"/>
<rect x="261" y="108" width="233" height="83" rx="41.5" stroke="white" stroke-width="4" shape-rendering="crispEdges"/>
</g>
<defs>
<filter id="filter0_d_400_154" x="0" y="0" width="253" height="103" filterUnits="userSpaceOnUse" color-interpolation-filters="sRGB">
<feFlood flood-opacity="0" result="BackgroundImageFix"/>
<feColorMatrix in="SourceAlpha" type="matrix" values="0 0 0 0 0 0 0 0 0 0 0 0 0 0 0 0 0 0 127 0" result="hardAlpha"/>
<feOffset dy="4"/>
<feGaussianBlur stdDeviation="4"/>
<feComposite in2="hardAlpha" operator="out"/>
<feColorMatrix type="matrix" values="0 0 0 0 0 0 0 0 0 0 0 0 0 0 0 0 0 0 0.13 0"/>
<feBlend mode="normal" in2="BackgroundImageFix" result="effect1_dropShadow_400_154"/>
<feBlend mode="normal" in="SourceGraphic" in2="effect1_dropShadow_400_154" result="shape"/>
</filter>
<filter id="filter1_d_400_154" x="251" y="0" width="253" height="103" filterUnits="userSpaceOnUse" color-interpolation-filters="sRGB">
<feFlood flood-opacity="0" result="BackgroundImageFix"/>
<feColorMatrix in="SourceAlpha" type="matrix" values="0 0 0 0 0 0 0 0 0 0 0 0 0 0 0 0 0 0 127 0" result="hardAlpha"/>
<feOffset dy="4"/>
<feGaussianBlur stdDeviation="4"/>
<feComposite in2="hardAlpha" operator="out"/>
<feColorMatrix type="matrix" values="0 0 0 0 0 0 0 0 0 0 0 0 0 0 0 0 0 0 0.13 0"/>
<feBlend mode="normal" in2="BackgroundImageFix" result="effect1_dropShadow_400_154"/>
<feBlend mode="normal" in="SourceGraphic" in2="effect1_dropShadow_400_154" result="shape"/>
</filter>
<filter id="filter2_d_400_154" x="0" y="102" width="253" height="103" filterUnits="userSpaceOnUse" color-interpolation-filters="sRGB">
<feFlood flood-opacity="0" result="BackgroundImageFix"/>
<feColorMatrix in="SourceAlpha" type="matrix" values="0 0 0 0 0 0 0 0 0 0 0 0 0 0 0 0 0 0 127 0" result="hardAlpha"/>
<feOffset dy="4"/>
<feGaussianBlur stdDeviation="4"/>
<feComposite in2="hardAlpha" operator="out"/>
<feColorMatrix type="matrix" values="0 0 0 0 0 0 0 0 0 0 0 0 0 0 0 0 0 0 0.13 0"/>
<feBlend mode="normal" in2="BackgroundImageFix" result="effect1_dropShadow_400_154"/>
<feBlend mode="normal" in="SourceGraphic" in2="effect1_dropShadow_400_154" result="shape"/>
</filter>
<filter id="filter3_d_400_154" x="251" y="102" width="253" height="103" filterUnits="userSpaceOnUse" color-interpolation-filters="sRGB">
<feFlood flood-opacity="0" result="BackgroundImageFix"/>
<feColorMatrix in="SourceAlpha" type="matrix" values="0 0 0 0 0 0 0 0 0 0 0 0 0 0 0 0 0 0 127 0" result="hardAlpha"/>
<feOffset dy="4"/>
<feGaussianBlur stdDeviation="4"/>
<feComposite in2="hardAlpha" operator="out"/>
<feColorMatrix type="matrix" values="0 0 0 0 0 0 0 0 0 0 0 0 0 0 0 0 0 0 0.13 0"/>
<feBlend mode="normal" in2="BackgroundImageFix" result="effect1_dropShadow_400_154"/>
<feBlend mode="normal" in="SourceGraphic" in2="effect1_dropShadow_400_154" result="shape"/>
</filter>
<clipPath id="clip0_400_154">
<rect width="51" height="51" fill="white" transform="translate(286.5 22)"/>
</clipPath>
<clipPath id="clip1_400_154">
<rect width="51" height="51" fill="white" transform="translate(52.5 124)"/>
</clipPath>
<clipPath id="clip2_400_154">
<rect width="51" height="51" fill="white" transform="translate(286.5 124)"/>
</clipPath>
</defs>
</svg>
