<svg width="71" height="97" viewBox="0 0 71 97" fill="none" xmlns="http://www.w3.org/2000/svg">
<path d="M10.6902 78.7437L10.8624 79.508C11.0617 79.7049 11.3302 79.8141 11.6097 79.8112C11.8885 79.8089 12.1551 79.6945 12.3501 79.4935C12.5464 79.2937 12.5723 77.1487 12.5698 76.8676C12.5674 76.5864 12.6211 76.1938 12.6211 76.1938C12.1925 61.3261 19.7858 51.8124 27.6707 45.9718C29.2935 46.7458 30.9843 47.3679 32.7209 47.83C47.4488 51.8675 65.0788 48.2939 69.1812 42.5348C71.2385 39.646 70.345 37.6329 69.6292 36.6903C66.1738 32.1385 52.5133 32.3119 39.7962 37.0675L39.7956 37.0681C35.4267 38.6611 31.2711 40.7942 27.4244 43.4191C24.992 41.9916 22.9258 39.9525 22.6715 37.1013C22.0722 30.3873 31.8863 27.2013 41.3776 24.1206C50.3938 21.1937 58.9099 18.4286 59.5986 12.4395C60.6497 3.29753 45.1689 0.635238 44.5097 0.525613C44.4529 0.516387 44.3954 0.511459 44.3379 0.511459C43.7907 0.512691 43.3351 0.936002 43.2911 1.48484C43.2464 2.0343 43.628 2.52591 44.1685 2.61512C44.3104 2.6385 58.3304 5.04918 57.509 12.1964C56.9765 16.8326 48.7179 19.5133 40.7314 22.1062C30.4539 25.4423 19.8276 28.8922 20.5758 37.2907C20.8418 40.2706 22.5399 42.7983 25.5623 44.7813V44.7819C20.728 48.4145 16.8354 53.1682 14.2165 58.6379C11.5977 64.1083 10.1557 70.1478 10.3452 76.217C10.3452 76.217 10.529 78.0054 10.6902 78.7437ZM40.5292 39.053C52.9171 34.4187 65.4465 34.6685 67.9558 37.9763C68.1965 38.2925 68.9278 39.2555 67.4697 41.3018C64.785 45.0735 55.6067 47.3636 46.1183 47.3636C41.7866 47.4017 37.4684 46.872 33.2726 45.7872C32.0539 45.4568 30.8585 45.0446 29.6943 44.5535C33.0904 42.3194 36.7244 40.4743 40.5284 39.0529L40.5292 39.053Z" fill="#E7332B"/>
<path fill-rule="evenodd" clip-rule="evenodd" d="M11.6215 96.4726L19.5037 75.4265L13.2905 78.1013L11.9398 84.4777L9.03967 77.9735L2.12231 75.2035L11.6215 96.4726Z" fill="#E7332B"/>
</svg>
