<svg width="90" height="113" viewBox="0 0 90 113" fill="none" xmlns="http://www.w3.org/2000/svg">
<g clip-path="url(#clip0_415_121)">
<path d="M7.51742 18.6324C7.18454 18.3869 6.71485 18.4565 6.46836 18.7888C6.22185 19.121 6.29188 19.5895 6.62476 19.8357L7.51742 18.6324ZM47.5752 39.4778L47.6048 38.73L47.5752 39.4778ZM6.62476 19.8357C11.659 23.555 15.0702 26.7219 17.2602 29.3756C19.4582 32.0382 20.3786 34.1253 20.5384 35.6909C20.6931 37.2055 20.1432 38.2856 19.2111 39.0451C18.2454 39.832 16.827 40.3029 15.26 40.4293C13.6999 40.5552 12.0708 40.3325 10.7403 39.8144C9.39438 39.2903 8.464 38.5112 8.1022 37.6029C7.7587 36.74 7.84668 35.5464 9.01503 33.9674C10.1938 32.3749 12.4177 30.4779 16.1398 28.3376L15.3908 27.0407C11.5884 29.2274 9.16315 31.2479 7.80835 33.0784C6.44313 34.9238 6.11327 36.6615 6.70821 38.1552C7.28489 39.6036 8.64918 40.6067 10.1949 41.2086C11.756 41.8166 13.6152 42.0636 15.3809 41.9211C17.1397 41.7792 18.8845 41.2436 20.16 40.2043C21.469 39.1377 22.2383 37.5714 22.0307 35.5389C21.8282 33.5558 20.7048 31.1941 18.4181 28.4237C16.1235 25.6436 12.609 22.3943 7.51742 18.6324L6.62476 19.8357ZM16.1398 28.3376C23.5537 24.0736 28.9205 23.8618 32.5883 25.6488C36.2758 27.4463 38.5062 31.3886 39.3569 36.0007C40.206 40.604 39.646 45.7223 37.9107 49.6442C36.1699 53.5781 33.3493 56.1266 29.7376 56.0633L29.7113 57.5598C34.1836 57.6381 37.4223 54.4533 39.2829 50.2487C41.1486 46.032 41.7317 40.6064 40.8321 35.7298C39.9343 30.8625 37.5243 26.3889 33.2466 24.304C28.9492 22.2102 23.0256 22.6495 15.3908 27.0407L16.1398 28.3376ZM29.7376 56.0633C27.7599 56.0287 26.5198 55.7294 25.8129 55.3214C25.4712 55.1242 25.2751 54.9137 25.1649 54.7131C25.056 54.5149 25.0049 54.2794 25.0279 53.9864C25.0764 53.3678 25.4529 52.5428 26.2139 51.5539C26.9613 50.5826 28.0197 49.5298 29.3003 48.4648C31.8606 46.3358 35.238 44.217 38.5917 42.6576C41.9691 41.0872 45.2175 40.1337 47.5455 40.2255L47.6048 38.73C44.9108 38.6238 41.3958 39.7026 37.9581 41.301C34.497 42.9103 31.0079 45.0965 28.34 47.3151C27.0066 48.4239 25.8604 49.5555 25.0241 50.6425C24.2013 51.7118 23.6148 52.819 23.5325 53.8696C23.49 54.4112 23.5815 54.9446 23.8495 55.4326C24.1163 55.918 24.5316 56.3109 25.0619 56.617C26.0994 57.2158 27.6468 57.5237 29.7113 57.5598L29.7376 56.0633ZM47.5455 40.2255C51.1158 40.3664 54.4608 42.5684 57.4779 46.0482C60.4855 49.5173 63.0798 54.1589 65.1491 58.9492C67.2162 63.7341 68.743 68.6289 69.6312 72.5762C70.0755 74.5507 70.3566 76.2739 70.4681 77.6188C70.5239 78.2918 70.536 78.8563 70.5084 79.3027C70.4799 79.7649 70.4121 80.0385 70.3501 80.1707L71.7092 80.8042C71.8905 80.4169 71.9732 79.9203 72.0056 79.3947C72.039 78.8533 72.0224 78.2124 71.963 77.4955C71.844 76.0604 71.5485 74.2655 71.0947 72.2483C70.1866 68.212 68.6312 63.2286 66.5266 58.3569C64.4244 53.4905 61.7578 48.6972 58.6122 45.0691C55.4761 41.4518 51.7756 38.8945 47.6048 38.73L47.5455 40.2255Z" fill="#E7332B"/>
<path fill-rule="evenodd" clip-rule="evenodd" d="M67.7838 98.4192L81.3743 76.7506L73.7913 78.3276L70.8393 85.1269L69.0438 77.2253L61.8945 72.5765L67.7838 98.4192Z" fill="#E7332B"/>
</g>
<defs>
<clipPath id="clip0_415_121">
<rect width="113" height="90" fill="white" transform="translate(0 113) rotate(-90)"/>
</clipPath>
</defs>
</svg>
