<svg width="160" height="128" viewBox="0 0 160 128" fill="none" xmlns="http://www.w3.org/2000/svg">
<path d="M160 0H0V128H160V0Z" fill="white"/>
<path d="M14.3942 68.9134V68.8461L21.0481 59.5096V57.3942H11.1249V59.8749H17.375V59.9422L10.8557 69.2211V71.3846H21.0673V68.9134H14.3942ZM29.4711 61.7692V66.4327C29.4711 67.3269 29.2595 68.0192 28.8557 68.4999C28.4423 68.9904 27.9326 69.2307 27.3364 69.2307C26.7211 69.2307 26.2788 69.0577 26.0095 68.7115C25.7404 68.3654 25.6153 67.75 25.6153 66.8846V61.7692H23.0385V67.5576C23.0385 68.2789 23.1153 68.8942 23.2884 69.4134C23.4615 69.9326 23.7019 70.3461 24.0287 70.6538C24.3558 70.9614 24.7211 71.1923 25.1442 71.3365C25.5576 71.4807 26.0383 71.548 26.5769 71.548C27.125 71.548 27.6441 71.4423 28.1346 71.2115C28.6249 70.9808 29.0577 70.6538 29.4327 70.2115H29.4711V71.3846H32.0481V61.7692H29.4711ZM40.0865 61.6058C39.5096 61.6058 38.9807 61.75 38.4807 62.0192C37.9807 62.2885 37.548 62.6827 37.1826 63.1826H37.1538V61.7692H34.5769V71.3846H37.1538V66.923C37.1538 66.1922 37.3654 65.5866 37.798 65.1153C38.2307 64.6538 38.8365 64.4134 39.6057 64.4134C39.798 64.4134 40.0287 64.4231 40.2884 64.4423V61.6154C40.2499 61.6154 40.1826 61.6058 40.0865 61.6058ZM43.3654 60.4134C43.798 60.4134 44.173 60.2595 44.4903 59.9518C44.798 59.6442 44.9614 59.2789 44.9614 58.8365C44.9614 58.4134 44.798 58.0384 44.4903 57.7307C44.173 57.423 43.798 57.2691 43.3654 57.2691C42.923 57.2691 42.5384 57.423 42.2307 57.7307C41.923 58.0384 41.7692 58.4134 41.7692 58.8365C41.7692 59.125 41.8365 59.3942 41.9807 59.6345C42.1154 59.8749 42.3076 60.0673 42.5576 60.2019C42.8076 60.3461 43.0769 60.4134 43.3654 60.4134ZM42.0769 71.3846H44.6537V61.7692H42.0769V71.3846ZM58.0865 71.3846H60.8749V57.3942H58.0865V71.3846ZM69.5 61.6058C68.9038 61.6058 68.3364 61.7307 67.798 61.9712C67.2595 62.2115 66.798 62.5576 66.4134 63.0096H66.3846V61.7692H63.8077V71.3846H66.3846V66.548C66.3846 65.7115 66.5769 65.0673 66.9711 64.6058C67.3654 64.1538 67.8942 63.923 68.5672 63.923C69.1923 63.923 69.6539 64.1057 69.9615 64.4615C70.2595 64.8269 70.4134 65.4423 70.4134 66.3269V71.3942H72.9903V65.6827C72.9903 64.9614 72.9038 64.3365 72.7404 63.798C72.5672 63.2691 72.3268 62.8461 72.0095 62.5288C71.6923 62.2211 71.3268 61.9904 70.9134 61.8365C70.4999 61.6827 70.0287 61.6058 69.5 61.6058ZM78.4519 71.548C79.0385 71.548 79.5192 71.5 79.8942 71.3942C80.2595 71.2981 80.6345 71.1442 80.9999 70.9422L80.3364 68.8846C79.8942 69.1153 79.4903 69.2211 79.125 69.2211C78.8173 69.2211 78.6057 69.125 78.4711 68.923C78.3364 68.7308 78.2788 68.4134 78.2788 67.9904V63.9038H80.8942V61.7692H78.2788V58.3461L75.7019 58.625V61.7692H74.5672V63.9038H75.7019V68.3461C75.7019 69.4038 75.9422 70.2019 76.4327 70.7404C76.923 71.2789 77.5961 71.548 78.4519 71.548ZM91.2884 66.4903C91.2884 65.5576 91.0865 64.7211 90.7018 63.9808C90.3076 63.2403 89.75 62.6635 89.0385 62.2403C88.3172 61.8173 87.4903 61.6058 86.5672 61.6058C85.8942 61.6058 85.2595 61.7307 84.673 61.9712C84.0769 62.2211 83.5768 62.5576 83.1538 62.9904C82.7308 63.423 82.4038 63.9518 82.1634 64.5672C81.9134 65.1826 81.798 65.8557 81.798 66.5672C81.798 67.548 82.0095 68.4231 82.4423 69.1826C82.8749 69.9518 83.4711 70.5384 84.2211 70.9422C84.9711 71.3462 85.8077 71.548 86.75 71.548C87.673 71.548 88.4807 71.3846 89.1923 71.0577C89.8942 70.7308 90.4615 70.2885 90.9038 69.7307L89.2307 68.173C88.6249 68.9038 87.8557 69.2691 86.9326 69.2595C86.3172 69.2595 85.7884 69.0865 85.3558 68.7596C84.923 68.4327 84.6345 67.9904 84.4807 67.4134H91.2211C91.2595 67.2595 91.2884 66.9518 91.2884 66.4903ZM86.6537 63.8749C87.1923 63.8749 87.6441 64.0288 87.9999 64.3269C88.346 64.6249 88.5961 65.0385 88.7308 65.5576H84.4903C84.6345 65.0192 84.8942 64.5962 85.2788 64.3077C85.6635 64.0192 86.1154 63.8749 86.6537 63.8749ZM98.8557 61.6058C98.2788 61.6058 97.75 61.75 97.2499 62.0192C96.75 62.2885 96.3172 62.6827 95.9518 63.1826H95.923V61.7692H93.3462V71.3846H95.923V66.923C95.923 66.1922 96.1346 65.5866 96.5672 65.1153C96.9999 64.6538 97.6057 64.4134 98.375 64.4134C98.5672 64.4134 98.798 64.4231 99.0577 64.4423V61.6154C99.0191 61.6154 98.9518 61.6058 98.8557 61.6058ZM106.423 61.6058C105.827 61.6058 105.26 61.7307 104.721 61.9712C104.183 62.2115 103.721 62.5576 103.336 63.0096H103.308V61.7692H100.731V71.3846H103.308V66.548C103.308 65.7115 103.5 65.0673 103.894 64.6058C104.288 64.1538 104.817 63.923 105.49 63.923C106.115 63.923 106.577 64.1057 106.885 64.4615C107.183 64.8269 107.336 65.4423 107.336 66.3269V71.3942H109.913V65.6827C109.913 64.9614 109.827 64.3365 109.663 63.798C109.49 63.2691 109.25 62.8461 108.933 62.5288C108.615 62.2211 108.25 61.9904 107.836 61.8365C107.423 61.6827 106.952 61.6058 106.423 61.6058ZM115.49 71.548C116.702 71.548 117.625 71.2789 118.26 70.7211C118.894 70.173 119.221 69.4519 119.221 68.5576C119.221 68.3269 119.202 68.1057 119.163 67.9134C119.038 67.2789 118.663 66.7596 118.048 66.375C117.683 66.1442 116.971 65.8365 115.913 65.4423C115.404 65.2499 115.038 65.0769 114.808 64.923C114.577 64.7692 114.471 64.5961 114.471 64.4038C114.471 64.173 114.567 64 114.76 63.8749C114.952 63.75 115.163 63.6827 115.413 63.6827C115.779 63.6827 116.163 63.7692 116.567 63.9422C116.971 64.1154 117.346 64.3654 117.711 64.7019L118.961 62.8173C118.413 62.3942 117.856 62.0865 117.298 61.8942C116.731 61.7019 116.115 61.6058 115.442 61.6058C114.788 61.6058 114.192 61.7307 113.673 61.9616C113.154 62.2019 112.74 62.5384 112.433 62.9808C112.125 63.423 111.981 63.923 111.981 64.4903C111.981 64.798 112.01 65.0769 112.086 65.3269C112.154 65.5865 112.26 65.8173 112.394 66.0096C112.529 66.2115 112.683 66.3942 112.856 66.548C113.029 66.7115 113.231 66.8557 113.471 66.9904C113.702 67.125 113.933 67.2307 114.163 67.3269C114.394 67.423 114.654 67.5192 114.942 67.6154C115.394 67.7692 115.731 67.8845 115.962 67.9808C116.192 68.0769 116.365 68.1826 116.5 68.2981C116.625 68.4134 116.692 68.5384 116.692 68.6827C116.692 68.923 116.587 69.1153 116.375 69.2595C116.163 69.4134 115.875 69.4807 115.51 69.4807C114.529 69.4807 113.644 69.1057 112.846 68.3558L111.596 70.1346C112.663 71.0769 113.962 71.548 115.49 71.548ZM126.951 61.6058C126.327 61.6058 125.75 61.7211 125.211 61.9422C124.673 62.173 124.212 62.4999 123.826 62.9326H123.788V56.8846H121.212V71.3846H123.788V66.5096C123.788 65.6635 123.98 65.0288 124.384 64.5866C124.779 64.1442 125.327 63.923 126.038 63.923C126.673 63.923 127.145 64.1057 127.452 64.4519C127.76 64.8076 127.914 65.4134 127.914 66.2595V71.3942H130.5V65.6058C130.5 64.8942 130.413 64.2693 130.24 63.75C130.068 63.2307 129.818 62.8076 129.5 62.4999C129.173 62.1922 128.807 61.9712 128.384 61.8269C127.962 61.6827 127.49 61.6058 126.951 61.6058ZM134.365 60.4134C134.797 60.4134 135.173 60.2595 135.49 59.9518C135.798 59.6442 135.962 59.2789 135.962 58.8365C135.962 58.4134 135.798 58.0384 135.49 57.7307C135.173 57.423 134.797 57.2691 134.365 57.2691C133.922 57.2691 133.538 57.423 133.231 57.7307C132.923 58.0384 132.769 58.4134 132.769 58.8365C132.769 59.125 132.837 59.3942 132.981 59.6345C133.115 59.8749 133.307 60.0673 133.558 60.2019C133.808 60.3461 134.077 60.4134 134.365 60.4134ZM133.077 71.3846H135.654V61.7692H133.077V71.3846ZM143.914 61.6058C142.683 61.6058 141.712 62.0288 140.999 62.8749H140.961V61.7692H138.385V75.2789H140.961V70.3077H140.999C141.682 71.1346 142.625 71.548 143.836 71.548C144.49 71.548 145.105 71.4327 145.673 71.1923C146.24 70.9614 146.731 70.625 147.135 70.2019C147.538 69.7788 147.866 69.2499 148.096 68.6346C148.327 68.0192 148.442 67.3365 148.442 66.6058C148.442 66.0288 148.365 65.4903 148.221 64.9712C148.068 64.4519 147.856 63.9904 147.586 63.5866C147.317 63.1826 146.991 62.8269 146.625 62.5288C146.25 62.2307 145.826 62 145.365 61.8461C144.903 61.6923 144.413 61.6058 143.914 61.6058ZM143.365 69.2403C142.895 69.2403 142.471 69.1346 142.086 68.923C141.702 68.7115 141.404 68.3942 141.183 67.9904C140.961 67.5866 140.855 67.1346 140.855 66.6154C140.855 66.2403 140.913 65.8845 141.039 65.548C141.163 65.2211 141.337 64.9326 141.558 64.6923C141.77 64.4615 142.038 64.2693 142.346 64.1346C142.653 64 143.001 63.923 143.365 63.923C144.068 63.923 144.653 64.173 145.125 64.6635C145.586 65.1634 145.826 65.8077 145.826 66.6154C145.826 67.3942 145.596 68.0288 145.135 68.5096C144.673 69 144.086 69.2403 143.365 69.2403Z" fill="black"/>
<path d="M51.9952 71.6298C52.6441 71.6298 53.2067 71.399 53.6683 70.9375C54.1298 70.4759 54.375 69.9279 54.375 69.2789C54.375 68.6442 54.1298 68.0817 53.6683 67.6202C53.2067 67.1586 52.6441 66.9135 51.9952 66.9135C51.3173 66.9135 50.7404 67.1442 50.2789 67.6058C49.8173 68.0673 49.5865 68.6298 49.5865 69.2789C49.5865 69.9423 49.8173 70.4903 50.2789 70.9519C50.7404 71.4134 51.3173 71.6298 51.9952 71.6298Z" fill="#E7332B"/>
</svg>
