<svg width="403" height="344" viewBox="0 0 403 344" fill="none" xmlns="http://www.w3.org/2000/svg">
<rect width="403" height="344" fill="white"/>
<path d="M403 0H0V344H403V0Z" fill="white"/>
<path d="M48.5427 185.205V185.024L66.4012 159.932V154.247H39.7685V160.914H56.5429V161.095L39.0457 186.032V191.846H66.4527V185.205H48.5427ZM89.0078 166.005V178.538C89.0078 180.941 88.44 182.802 87.3562 184.094C86.2466 185.412 84.8787 186.058 83.2786 186.058C81.627 186.058 80.4401 185.593 79.7174 184.662C78.9949 183.732 78.6593 182.078 78.6593 179.753V166.005H71.7432V181.561C71.7432 183.5 71.9494 185.153 72.4141 186.549C72.8786 187.944 73.5237 189.055 74.4011 189.882C75.2787 190.709 76.2592 191.329 77.3948 191.717C78.5044 192.104 79.7947 192.285 81.2402 192.285C82.7111 192.285 84.1044 192.001 85.4208 191.381C86.7368 190.761 87.8983 189.882 88.9048 188.694H89.0078V191.846H95.9242V166.005H89.0078ZM117.499 165.566C115.95 165.566 114.531 165.953 113.189 166.677C111.847 167.4 110.686 168.46 109.705 169.803H109.628V166.005H102.711V191.846H109.628V179.856C109.628 177.892 110.195 176.264 111.356 174.997C112.518 173.757 114.144 173.111 116.208 173.111C116.724 173.111 117.344 173.137 118.041 173.189V165.591C117.937 165.591 117.757 165.566 117.499 165.566ZM126.299 162.361C127.46 162.361 128.466 161.948 129.318 161.121C130.144 160.294 130.583 159.312 130.583 158.123C130.583 156.986 130.144 155.978 129.318 155.151C128.466 154.324 127.46 153.911 126.299 153.911C125.112 153.911 124.079 154.324 123.254 155.151C122.428 155.978 122.015 156.986 122.015 158.123C122.015 158.899 122.196 159.622 122.583 160.268C122.944 160.914 123.46 161.431 124.131 161.793C124.802 162.18 125.525 162.361 126.299 162.361ZM122.841 191.846H129.757V166.005H122.841V191.846ZM173.345 191.846H180.751V160.914H191.151V154.247H162.996V160.914H173.345V191.846ZM207.152 165.566C205.603 165.566 204.184 165.953 202.842 166.677C201.5 167.4 200.339 168.46 199.358 169.803H199.281V166.005H192.364V191.846H199.281V179.856C199.281 177.892 199.848 176.264 201.01 174.997C202.171 173.757 203.797 173.111 205.861 173.111C206.378 173.111 206.997 173.137 207.694 173.189V165.591C207.591 165.591 207.41 165.566 207.152 165.566ZM230.017 166.005V168.925H229.913C227.978 166.702 225.449 165.566 222.3 165.566C220.597 165.566 218.971 165.901 217.474 166.573C215.978 167.245 214.687 168.176 213.604 169.338C212.519 170.527 211.694 171.948 211.074 173.602C210.455 175.282 210.145 177.091 210.145 179.003C210.145 180.967 210.455 182.802 211.074 184.455C211.694 186.109 212.545 187.531 213.629 188.668C214.713 189.805 216.029 190.709 217.552 191.329C219.074 191.975 220.726 192.285 222.507 192.285C225.81 192.285 228.365 191.097 230.223 188.719H230.352V191.846H236.933V166.005H230.017ZM223.771 186.083C221.81 186.083 220.236 185.437 218.997 184.12C217.758 182.827 217.165 181.122 217.165 179.029C217.165 176.858 217.784 175.127 219.049 173.783C220.313 172.465 221.887 171.793 223.797 171.793C225.655 171.793 227.203 172.491 228.442 173.861C229.681 175.256 230.301 176.962 230.301 179.029C230.301 181.122 229.655 182.827 228.416 184.12C227.152 185.437 225.604 186.083 223.771 186.083ZM247.488 162.361C248.649 162.361 249.656 161.948 250.507 161.121C251.333 160.294 251.772 159.312 251.772 158.123C251.772 156.986 251.333 155.978 250.507 155.151C249.656 154.324 248.649 153.911 247.488 153.911C246.301 153.911 245.268 154.324 244.443 155.151C243.617 155.978 243.204 156.986 243.204 158.123C243.204 158.899 243.385 159.622 243.772 160.268C244.133 160.914 244.649 161.431 245.32 161.793C245.991 162.18 246.714 162.361 247.488 162.361ZM244.03 191.846H250.946V166.005H244.03V191.846ZM273.553 165.566C271.953 165.566 270.43 165.901 268.985 166.548C267.54 167.194 266.301 168.124 265.269 169.338H265.191V166.005H258.275V191.846H265.191V178.848C265.191 176.6 265.707 174.868 266.766 173.628C267.824 172.413 269.243 171.793 271.05 171.793C272.727 171.793 273.966 172.284 274.792 173.24C275.592 174.222 276.004 175.876 276.004 178.254V191.872H282.921V176.522C282.921 174.584 282.688 172.904 282.25 171.457C281.785 170.036 281.14 168.899 280.288 168.046C279.437 167.219 278.456 166.599 277.346 166.186C276.237 165.772 274.972 165.566 273.553 165.566ZM293.321 162.361C294.482 162.361 295.489 161.948 296.34 161.121C297.166 160.294 297.605 159.312 297.605 158.123C297.605 156.986 297.166 155.978 296.34 155.151C295.489 154.324 294.482 153.911 293.321 153.911C292.134 153.911 291.101 154.324 290.276 155.151C289.45 155.978 289.037 156.986 289.037 158.123C289.037 158.899 289.218 159.622 289.605 160.268C289.966 160.914 290.482 161.431 291.153 161.793C291.824 162.18 292.547 162.361 293.321 162.361ZM289.863 191.846H296.779V166.005H289.863V191.846ZM319.386 165.566C317.786 165.566 316.263 165.901 314.818 166.548C313.373 167.194 312.134 168.124 311.102 169.338H311.024V166.005H304.108V191.846H311.024V178.848C311.024 176.6 311.54 174.868 312.599 173.628C313.657 172.413 315.076 171.793 316.883 171.793C318.56 171.793 319.799 172.284 320.625 173.24C321.425 174.222 321.837 175.876 321.837 178.254V191.872H328.754V176.522C328.754 174.584 328.521 172.904 328.083 171.457C327.618 170.036 326.973 168.899 326.121 168.046C325.27 167.219 324.289 166.599 323.179 166.186C322.07 165.772 320.805 165.566 319.386 165.566ZM353.682 166.005V168.666H353.553C352.549 167.659 351.386 166.883 350.045 166.367C348.701 165.85 347.31 165.566 345.837 165.566C343.567 165.566 341.503 166.134 339.696 167.245C337.863 168.382 336.446 169.933 335.412 171.923C334.381 173.938 333.889 176.186 333.889 178.667C333.889 181.148 334.404 183.344 335.464 185.282C336.522 187.221 337.991 188.719 339.851 189.779C341.708 190.864 343.825 191.381 346.2 191.381C349.295 191.381 351.799 190.373 353.708 188.358H353.837V190.968C353.837 192.621 353.193 193.991 351.928 195.076C350.636 196.162 348.856 196.704 346.534 196.704C344.988 196.704 343.567 196.497 342.249 196.084C340.908 195.671 339.541 195.076 338.147 194.301L336.548 200.141C339.567 201.899 343.102 202.751 347.128 202.751C349.064 202.751 350.792 202.545 352.314 202.079C353.837 201.64 355.129 201.02 356.16 200.193C357.193 199.392 358.046 198.41 358.716 197.247C359.387 196.084 359.853 194.818 360.16 193.423C360.444 192.053 360.599 190.528 360.599 188.875V166.005H353.682ZM347.465 185.101C346.715 185.101 346.018 185.024 345.348 184.817C344.677 184.611 344.083 184.326 343.541 183.939C342.999 183.577 342.534 183.112 342.147 182.569C341.734 182.052 341.424 181.432 341.219 180.734C341.011 180.037 340.908 179.287 340.908 178.46C340.908 176.522 341.503 174.946 342.742 173.705C343.954 172.491 345.53 171.871 347.465 171.871C349.322 171.871 350.871 172.491 352.11 173.68C353.348 174.894 353.993 176.471 353.993 178.409C353.993 180.372 353.375 181.975 352.159 183.215C350.921 184.481 349.375 185.101 347.465 185.101Z" fill="black"/>
<path d="M152.764 192.505C154.506 192.505 156.015 191.885 157.254 190.644C158.493 189.404 159.151 187.931 159.151 186.187C159.151 184.481 158.493 182.97 157.254 181.729C156.015 180.489 154.506 179.83 152.764 179.83C150.944 179.83 149.396 180.45 148.157 181.691C146.919 182.931 146.299 184.443 146.299 186.187C146.299 187.97 146.919 189.443 148.157 190.683C149.396 191.924 150.944 192.505 152.764 192.505Z" fill="#E7332B"/>
</svg>
