<svg width="118" height="21" viewBox="0 0 118 21" fill="none" xmlns="http://www.w3.org/2000/svg">
<g clip-path="url(#clip0_18_117)">
<path d="M4.34223 16.7242V16.6861L13.4748 3.46194V1.03094H0.79975V3.8565H9.39215V3.90742L0.397766 17.0807V19.5498H13.5125V16.7242H4.34223ZM24.881 6.8348V12.9186C24.881 13.5805 24.7931 14.1914 24.6172 14.726C24.4414 15.2606 24.2027 15.706 23.9013 16.0369C23.5997 16.3806 23.248 16.6479 22.8711 16.8261C22.4818 17.0042 22.0798 17.0934 21.6526 17.0934C21.2004 17.0934 20.8361 17.0424 20.5346 16.9407C20.2332 16.8388 19.9693 16.6479 19.7684 16.3934C19.5548 16.1388 19.4041 15.8079 19.3035 15.3751C19.2031 14.9551 19.1654 14.4205 19.1654 13.7841V6.8348H16.2887V14.5733C16.2887 15.5024 16.4018 16.3042 16.6278 16.9788C16.854 17.6534 17.168 18.188 17.5952 18.5825C18.0222 18.9898 18.5121 19.2825 19.0649 19.4735C19.6176 19.6644 20.2582 19.7535 20.9743 19.7535C21.7155 19.7535 22.419 19.6008 23.0973 19.2825C23.7631 18.9643 24.3409 18.5062 24.8434 17.8953H24.881V19.5498H27.7578V6.8348H24.881ZM38.2219 6.64388C37.4556 6.64388 36.7396 6.8348 36.0612 7.19117C35.3829 7.54755 34.8051 8.06939 34.3151 8.74396H34.2775V6.8348H31.4008V19.5498H34.2775V13.5169C34.2775 12.8296 34.4031 12.2059 34.6668 11.6586C34.9306 11.1114 35.3201 10.6786 35.8477 10.3477C36.3753 10.0295 36.9908 9.864 37.7069 9.864C37.9582 9.864 38.2471 9.87673 38.5737 9.90219V6.65661C38.4983 6.65661 38.3852 6.64388 38.2219 6.64388ZM42.6186 4.93837C42.9578 4.93837 43.2719 4.86199 43.5733 4.68381C43.8748 4.50562 44.1134 4.27652 44.2894 3.97105C44.4653 3.67832 44.5532 3.36012 44.5532 3.00374C44.5532 2.48191 44.3522 2.02371 43.9753 1.64188C43.5985 1.26005 43.1462 1.06913 42.6186 1.06913C42.0659 1.06913 41.6136 1.26005 41.2369 1.64188C40.86 2.02371 40.6715 2.46918 40.6715 3.00374C40.6715 3.53831 40.86 3.99651 41.2369 4.37834C41.6136 4.76017 42.0659 4.93837 42.6186 4.93837ZM41.1614 19.5498H44.0381V6.8348H41.1614V19.5498ZM59.0497 19.5498H62.1526V3.8565H67.3909V1.03094H53.8616V3.8565H59.0497V19.5498ZM79.2242 13.0459C79.2242 11.8241 78.973 10.7168 78.4831 9.74945C77.9806 8.78215 77.2771 8.03121 76.3476 7.47119C75.418 6.92389 74.3377 6.64388 73.1317 6.64388C72.265 6.64388 71.461 6.80934 70.7072 7.12754C69.9535 7.44573 69.3003 7.8912 68.7601 8.45122C68.2074 9.02397 67.7803 9.71127 67.4788 10.5259C67.1647 11.3404 67.014 12.2313 67.014 13.1859C67.014 14.4841 67.2903 15.6424 67.8557 16.6479C68.4084 17.6534 69.1746 18.417 70.1545 18.9516C71.1218 19.4862 72.2147 19.7535 73.4332 19.7535C74.6015 19.7535 75.6316 19.5371 76.5234 19.1043C77.4154 18.6716 78.1439 18.0861 78.7218 17.348L76.7119 15.6042C75.9204 16.6097 74.8779 17.1061 73.5839 17.1061C72.6543 17.1061 71.8755 16.8515 71.2348 16.3297C70.5942 15.8206 70.1797 15.1079 70.0038 14.2041H79.1489C79.1991 13.8987 79.2242 13.5169 79.2242 13.0459ZM73.2825 9.29126C73.8101 9.29126 74.2874 9.40581 74.7145 9.62218C75.1417 9.83854 75.4808 10.1313 75.7446 10.5131C76.0083 10.8949 76.2094 11.3404 76.335 11.8496H70.0541C70.255 11.035 70.6444 10.4113 71.2223 9.96582C71.8002 9.52035 72.4785 9.29126 73.2825 9.29126ZM91.422 6.8348V8.36213H91.3717C90.417 7.21663 89.1231 6.64388 87.4901 6.64388C86.6358 6.64388 85.8319 6.80934 85.0907 7.14027C84.337 7.47119 83.6963 7.92938 83.1687 8.50213C82.6285 9.08761 82.2015 9.78764 81.8999 10.6022C81.5859 11.4295 81.4352 12.3077 81.4352 13.2496C81.4352 14.026 81.5231 14.7514 81.7241 15.4387C81.9251 16.1261 82.2015 16.7242 82.5657 17.2461C82.9301 17.768 83.3571 18.2134 83.8597 18.5952C84.3621 18.9771 84.9148 19.2698 85.543 19.4608C86.171 19.6644 86.8243 19.7535 87.5152 19.7535C89.2236 19.7535 90.5552 19.1171 91.5099 17.8443H91.5475V19.5498H94.2987V6.8348H91.422ZM87.9674 17.1061C86.8996 17.1061 86.0329 16.7497 85.3671 16.0369C84.6887 15.3242 84.3621 14.3951 84.3621 13.2623C84.3621 12.6769 84.45 12.1296 84.6385 11.6204C84.8269 11.1114 85.0907 10.6913 85.4173 10.3604C85.744 10.0295 86.1208 9.76218 86.5605 9.57126C87.0002 9.39308 87.4775 9.29126 87.98 9.29126C88.9975 9.29126 89.8392 9.67309 90.5175 10.4368C91.1958 11.2004 91.535 12.1423 91.535 13.2623C91.535 14.3951 91.1833 15.3242 90.4924 16.0369C89.8014 16.7497 88.9598 17.1061 87.9674 17.1061ZM113.054 6.64388C112.124 6.64388 111.27 6.8348 110.504 7.19117C109.724 7.54755 109.084 8.06939 108.557 8.75669H108.507C107.753 7.35664 106.509 6.64388 104.763 6.64388C104.022 6.64388 103.306 6.82207 102.627 7.15299C101.949 7.48391 101.346 7.96757 100.843 8.59123H100.806V6.8348H97.9291V19.5498H100.806V13.2114C100.806 12.0023 101.082 11.0477 101.647 10.3477C102.213 9.64763 102.941 9.29126 103.821 9.29126C105.479 9.29126 106.32 10.5131 106.32 12.9313V19.5625H109.197V13.2114C109.197 12.0023 109.474 11.0477 110.027 10.3477C110.579 9.64763 111.282 9.29126 112.124 9.29126C113.757 9.29126 114.587 10.5131 114.587 12.9313V19.5625H117.463V12.1932C117.463 10.3349 117.074 8.9476 116.32 8.0312C115.554 7.11481 114.46 6.64388 113.054 6.64388Z" fill="#514949"/>
<path d="M49.5905 19.7534C50.1181 19.7534 50.5704 19.5752 50.9472 19.1934C51.3241 18.8116 51.5251 18.3533 51.5251 17.8188C51.5251 17.2843 51.3241 16.8261 50.9472 16.4442C50.5704 16.0624 50.1181 15.8715 49.5905 15.8715C49.2263 15.8715 48.8996 15.9606 48.5981 16.1388C48.2967 16.3169 48.0579 16.5461 47.8821 16.8515C47.7062 17.157 47.6309 17.4751 47.6309 17.8188C47.6309 18.3533 47.8193 18.8116 48.1961 19.1934C48.573 19.5752 49.0378 19.7534 49.5905 19.7534Z" fill="#F8444F"/>
</g>
<defs>
<clipPath id="clip0_18_117">
<rect width="117.915" height="20.6359" fill="white"/>
</clipPath>
</defs>
</svg>
