<svg width="282" height="240" viewBox="0 0 282 240" fill="none" xmlns="http://www.w3.org/2000/svg">
<rect width="282" height="240" fill="white"/>
<path d="M282 0H0V240H282V0Z" fill="white"/>
<path d="M50.1482 129.213V129.087L62.6447 111.581V107.614H44.0084V112.266H55.7463V112.392L43.5027 129.79V133.846H62.6808V129.213H50.1482ZM78.4638 115.817V124.561C78.4638 126.238 78.0664 127.536 77.308 128.437C76.5316 129.357 75.5744 129.808 74.4547 129.808C73.299 129.808 72.4685 129.483 71.9627 128.834C71.4572 128.185 71.2224 127.031 71.2224 125.409V115.817H66.3828V126.671C66.3828 128.023 66.5271 129.177 66.8523 130.15C67.1773 131.124 67.6287 131.899 68.2426 132.476C68.8568 133.053 69.5428 133.486 70.3375 133.756C71.114 134.026 72.0168 134.153 73.0283 134.153C74.0576 134.153 75.0326 133.954 75.9537 133.522C76.8746 133.089 77.6873 132.476 78.3916 131.647H78.4638V133.846H83.3035V115.817H78.4638ZM98.4002 115.511C97.3168 115.511 96.3236 115.781 95.3844 116.286C94.4455 116.791 93.6328 117.53 92.9465 118.468H92.8924V115.817H88.0529V133.846H92.8924V125.481C92.8924 124.111 93.2898 122.975 94.1023 122.091C94.915 121.226 96.0527 120.775 97.4974 120.775C97.8584 120.775 98.2918 120.793 98.7795 120.829V115.529C98.7072 115.529 98.5808 115.511 98.4002 115.511ZM104.558 113.275C105.371 113.275 106.075 112.987 106.671 112.41C107.249 111.833 107.556 111.148 107.556 110.319C107.556 109.525 107.249 108.822 106.671 108.245C106.075 107.668 105.371 107.38 104.558 107.38C103.727 107.38 103.005 107.668 102.427 108.245C101.849 108.822 101.56 109.525 101.56 110.319C101.56 110.86 101.687 111.364 101.958 111.815C102.211 112.266 102.572 112.626 103.041 112.879C103.511 113.149 104.016 113.275 104.558 113.275ZM102.138 133.846H106.978V115.817H102.138V133.846ZM137.479 133.846H142.662V112.266H149.939V107.614H130.237V112.266H137.479V133.846ZM163.122 115.817V117.855H163.049C161.695 116.304 159.925 115.511 157.722 115.511C156.53 115.511 155.393 115.745 154.345 116.214C153.298 116.683 152.395 117.332 151.637 118.143C150.878 118.972 150.3 119.964 149.867 121.118C149.433 122.29 149.217 123.552 149.217 124.886C149.217 126.256 149.433 127.536 149.867 128.69C150.3 129.844 150.896 130.835 151.655 131.629C152.413 132.422 153.334 133.053 154.399 133.486C155.465 133.936 156.621 134.153 157.867 134.153C160.178 134.153 161.966 133.323 163.266 131.665H163.356V133.846H167.961V115.817H163.122ZM158.751 129.826C157.379 129.826 156.277 129.375 155.411 128.456C154.544 127.554 154.129 126.364 154.129 124.904C154.129 123.39 154.562 122.182 155.447 121.244C156.332 120.325 157.433 119.856 158.769 119.856C160.07 119.856 161.153 120.343 162.02 121.298C162.887 122.272 163.32 123.462 163.32 124.904C163.32 126.364 162.869 127.554 162.002 128.456C161.117 129.375 160.034 129.826 158.751 129.826ZM172.927 133.846H177.767V106.659H172.927V133.846ZM199.726 124.669C199.726 122.921 199.347 121.352 198.624 119.964C197.884 118.576 196.836 117.494 195.5 116.701C194.146 115.908 192.593 115.511 190.859 115.511C189.595 115.511 188.403 115.745 187.302 116.196C186.182 116.665 185.243 117.296 184.449 118.107C183.654 118.918 183.04 119.91 182.589 121.064C182.119 122.218 181.902 123.48 181.902 124.814C181.902 126.653 182.3 128.293 183.112 129.718C183.925 131.16 185.044 132.26 186.453 133.017C187.861 133.774 189.433 134.153 191.202 134.153C192.936 134.153 194.453 133.846 195.789 133.233C197.107 132.62 198.173 131.791 199.004 130.745L195.861 127.825C194.724 129.195 193.279 129.88 191.546 129.862C190.39 129.862 189.397 129.537 188.584 128.924C187.771 128.311 187.23 127.482 186.941 126.4H199.6C199.672 126.112 199.726 125.535 199.726 124.669ZM191.022 119.766C192.033 119.766 192.882 120.054 193.55 120.613C194.2 121.172 194.67 121.947 194.922 122.921H186.959C187.23 121.911 187.717 121.118 188.439 120.577C189.162 120.036 190.01 119.766 191.022 119.766ZM214.281 115.511C213.162 115.511 212.096 115.745 211.085 116.196C210.073 116.647 209.207 117.296 208.484 118.143H208.43V115.817H203.59V133.846H208.43V124.778C208.43 123.209 208.791 122.001 209.532 121.136C210.272 120.289 211.265 119.856 212.529 119.856C213.703 119.856 214.57 120.198 215.148 120.865C215.708 121.551 215.997 122.704 215.997 124.363V133.864H220.836V123.155C220.836 121.803 220.674 120.631 220.367 119.621C220.042 118.63 219.59 117.837 218.994 117.242C218.398 116.665 217.712 116.232 216.936 115.944C216.159 115.655 215.274 115.511 214.281 115.511ZM231.093 134.153C232.195 134.153 233.098 134.063 233.801 133.864C234.488 133.684 235.193 133.396 235.879 133.017L234.633 129.159C233.801 129.591 233.043 129.79 232.356 129.79C231.779 129.79 231.383 129.61 231.13 129.231C230.877 128.87 230.768 128.275 230.768 127.482V119.82H235.68V115.817H230.768V109.399L225.929 109.922V115.817H223.798V119.82H225.929V128.149C225.929 130.132 226.38 131.629 227.301 132.638C228.222 133.648 229.486 134.153 231.093 134.153Z" fill="black"/>
<path d="M123.077 134.306C124.296 134.306 125.352 133.873 126.219 133.008C127.086 132.142 127.546 131.115 127.546 129.898C127.546 128.708 127.086 127.653 126.219 126.788C125.352 125.922 124.296 125.463 123.077 125.463C121.804 125.463 120.72 125.895 119.854 126.761C118.987 127.626 118.553 128.681 118.553 129.898C118.553 131.142 118.987 132.169 119.854 133.035C120.72 133.9 121.804 134.306 123.077 134.306Z" fill="#E7332B"/>
</svg>
